<svg xmlns="http://www.w3.org/2000/svg" xmlns:xlink="http://www.w3.org/1999/xlink" width="24" height="30" viewBox="0 0 34 40">
    <defs>
        <path id="a" d="M4.848 0h24.304A4.848 4.848 0 0 1 34 4.848v24.243a4.848 4.848 0 0 1-4.848 4.848h-6.134C21.822 33.94 18.197 40 17 40c-1.221 0-4.871-6.06-6.093-6.06H4.848A4.848 4.848 0 0 1 0 29.09V4.849A4.848 4.848 0 0 1 4.848 0z"/>
    </defs>
    <g fill="none" fill-rule="evenodd">
        <g>
            <use fill="#1ABC9C" xlink:href="#a"/>
            <path stroke="#16A085" stroke-width="1.212" d="M4.848.606A4.242 4.242 0 0 0 .606 4.848v24.243c0 2.343 1.9 4.242 4.242 4.242H10.908c.815 0 1.413.638 3.518 3.257 1.548 1.926 2.372 2.804 2.574 2.804.19 0 1.01-.885 2.535-2.802 2.091-2.628 2.676-3.259 3.483-3.259h6.134c2.343 0 4.242-1.9 4.242-4.242V4.848c0-2.343-1.9-4.242-4.242-4.242H4.848z"/>
        </g>
        <g fill="#F7FFFD" fill-rule="nonzero">
            <path d="M23.758 23.989c-.356.355-.53.513-.94.513-.409 0-.584-.158-.94-.513-.397-.395-.94-.937-1.967-.937h-.002c-1.029 0-1.572.541-1.969.937-.356.355-.531.513-.94.513-.409 0-.584-.158-.94-.513-.397-.395-.94-.937-1.967-.937h-.002c-1.029 0-1.572.541-1.969.937-.356.355-.531.513-.94.513-.409 0-.584-.158-.94-.513a.729.729 0 0 0-1.029 0 .724.724 0 0 0 0 1.025c.397.396.94.938 1.969.938 1.029 0 1.572-.542 1.969-.938.356-.355.531-.512.94-.512.409 0 .584.157.94.512.397.396.94.938 1.969.938 1.029 0 1.572-.542 1.969-.938.356-.355.531-.512.94-.512.41 0 .584.157.94.512.397.396.94.938 1.969.938 1.029 0 1.572-.542 1.97-.938a.724.724 0 0 0-.001-1.025.73.73 0 0 0-1.029 0zM24.273 11.45a.726.726 0 1 0 0-1.45H9.727a.726.726 0 1 0 0 1.45h2.182v9.844c-.231.211-.408.307-.727.307-.409 0-.584-.157-.94-.512a.729.729 0 0 0-1.029 0 .724.724 0 0 0 0 1.025c.397.396.94.937 1.969.937 1.029 0 1.572-.541 1.969-.937.356-.355.531-.512.94-.513.409 0 .584.158.94.513.397.396.94.937 1.969.937 1.029 0 1.572-.541 1.969-.937.356-.355.531-.512.94-.513.41 0 .584.158.94.513.397.396.94.937 1.969.937 1.029 0 1.572-.541 1.97-.937a.724.724 0 0 0-.001-1.025.729.729 0 0 0-1.029 0c-.356.355-.53.512-.94.512-.319 0-.496-.096-.727-.307V11.45h2.182zm-8 7.025a.726.726 0 0 1-1.455 0v-2.433a.726.726 0 0 1 1.455 0v2.433zm2.909-2.417a.726.726 0 0 1-1.455 0v-2.433a.726.726 0 0 1 1.455 0v2.433z"/>
        </g>
    </g>
</svg>
