<?xml version="1.0" encoding="UTF-8"?>
<svg width="42px" height="38px" viewBox="0 0 42 38" version="1.1" xmlns="http://www.w3.org/2000/svg" xmlns:xlink="http://www.w3.org/1999/xlink">
    <!-- Generator: Sketch 47 (45396) - http://www.bohemiancoding.com/sketch -->
    <title>air-conditioner</title>
    <desc>Created with Sketch.</desc>
    <defs></defs>
    <g id="Page-1" stroke="none" stroke-width="1" fill="none" fill-rule="evenodd">
        <g id="Artboard" transform="translate(-127.000000, -296.000000)" fill-rule="nonzero" fill="#0086CD">
            <g id="air-conditioner" transform="translate(127.000000, 296.000000)">
                <path d="M38.3085938,0 L3.69140625,0 C1.65596484,0 0,1.66762174 0,3.7173913 L0,18.5869565 C0,20.6367261 1.65596484,22.3043478 3.69140625,22.3043478 L38.3085938,22.3043478 C40.3440352,22.3043478 42,20.6367261 42,18.5869565 L42,3.7173913 C42,1.66762174 40.3440352,0 38.3085938,0 Z M39.5390625,18.5869565 C39.5390625,19.270213 38.9870742,19.826087 38.3085938,19.826087 L3.69140625,19.826087 C3.01292578,19.826087 2.4609375,19.270213 2.4609375,18.5869565 L2.4609375,18.173913 L39.5390625,18.173913 L39.5390625,18.5869565 Z M39.5390625,15.6956522 L2.4609375,15.6956522 L2.4609375,3.7173913 C2.4609375,3.03413478 3.01292578,2.47826087 3.69140625,2.47826087 L38.3085938,2.47826087 C38.9870742,2.47826087 39.5390625,3.03413478 39.5390625,3.7173913 L39.5390625,15.6956522 Z" id="Shape"></path>
                <ellipse id="Oval" cx="36.2578125" cy="5.7826087" rx="1.23046875" ry="1.23913043"></ellipse>
                <path d="M23.5429688,25.1956522 C23.5429688,24.5113217 22.9920469,23.9565217 22.3125,23.9565217 C21.6329531,23.9565217 21.0820313,24.5113217 21.0820313,25.1956522 C21.0820313,27.3469478 18.4570313,27.6026217 18.4570313,30.9782609 C18.4570313,34.3556348 21.0820313,34.6071783 21.0820313,36.7608696 C21.0820313,37.4452 21.6329531,38 22.3125,38 C22.9920469,38 23.5429688,37.4452 23.5429688,36.7608696 C23.5429688,33.3834957 20.9179688,33.1319522 20.9179688,30.9782609 C20.9179688,28.8269652 23.5429688,28.5712913 23.5429688,25.1956522 Z" id="Shape"></path>
                <path d="M31.7460938,25.1956522 C31.7460938,24.5113217 31.1951719,23.9565217 30.515625,23.9565217 C29.8360781,23.9565217 29.2851563,24.5113217 29.2851563,25.1956522 C29.2851563,27.3469478 26.6601563,27.6026217 26.6601563,30.9782609 C26.6601563,34.3556348 29.2851563,34.6071783 29.2851563,36.7608696 C29.2851563,37.4452 29.8360781,38 30.515625,38 C31.1951719,38 31.7460938,37.4452 31.7460938,36.7608696 C31.7460938,33.3834957 29.1210938,33.1319522 29.1210938,30.9782609 C29.1210938,28.8269652 31.7460938,28.5712913 31.7460938,25.1956522 Z" id="Shape"></path>
                <path d="M15.3398438,25.1956522 C15.3398438,24.5113217 14.7889219,23.9565217 14.109375,23.9565217 C13.4298281,23.9565217 12.8789062,24.5113217 12.8789062,25.1956522 C12.8789062,27.3469478 10.2539062,27.6026217 10.2539062,30.9782609 C10.2539062,34.3556348 12.8789062,34.6071783 12.8789062,36.7608696 C12.8789062,37.4452 13.4298281,38 14.109375,38 C14.7889219,38 15.3398438,37.4452 15.3398438,36.7608696 C15.3398438,33.3834957 12.7148438,33.1319522 12.7148438,30.9782609 C12.7148438,28.8269652 15.3398438,28.5712913 15.3398438,25.1956522 Z" id="Shape"></path>
            </g>
        </g>
    </g>
</svg>