<?xml version="1.0" encoding="UTF-8"?>
<svg width="36px" height="42px" viewBox="0 0 36 42" version="1.1" xmlns="http://www.w3.org/2000/svg" xmlns:xlink="http://www.w3.org/1999/xlink">
    <!-- Generator: Sketch 47 (45396) - http://www.bohemiancoding.com/sketch -->
    <title>avatar</title>
    <desc>Created with Sketch.</desc>
    <defs></defs>
    <g id="Page-1" stroke="none" stroke-width="1" fill="none" fill-rule="evenodd">
        <g id="Artboard" transform="translate(-109.000000, -120.000000)" fill-rule="nonzero" fill="#949CA1">
            <g id="avatar" transform="translate(109.000000, 120.000000)">
                <path d="M17.8423358,22.626087 C17.8861314,22.626087 17.929927,22.626087 17.9824818,22.626087 C18,22.626087 18.0175182,22.626087 18.0350365,22.626087 C18.0613139,22.626087 18.0963504,22.626087 18.1226277,22.626087 C20.6890511,22.5826087 22.7649635,21.6869565 24.2978102,19.973913 C27.670073,16.2 27.1094891,9.73043478 27.0481752,9.11304348 C26.8291971,4.47826087 24.6218978,2.26086957 22.8,1.22608696 C21.4423358,0.452173913 19.8569343,0.0347826087 18.0875912,0 L18.0262774,0 C18.0175182,0 18,0 17.9912409,0 L17.9386861,0 C16.9664234,0 15.0569343,0.156521739 13.2262774,1.19130435 C11.3868613,2.22608696 9.14452555,4.44347826 8.92554745,9.11304348 C8.86423358,9.73043478 8.30364964,16.2 11.6759124,19.973913 C13.2,21.6869565 15.2759124,22.5826087 17.8423358,22.626087 Z M11.2642336,9.33043478 C11.2642336,9.30434783 11.2729927,9.27826087 11.2729927,9.26086957 C11.5620438,3.02608696 16.020438,2.35652174 17.929927,2.35652174 L17.9649635,2.35652174 C17.9824818,2.35652174 18.0087591,2.35652174 18.0350365,2.35652174 C20.4,2.40869565 24.420438,3.36521739 24.6919708,9.26086957 C24.6919708,9.28695652 24.6919708,9.31304348 24.7007299,9.33043478 C24.7094891,9.39130435 25.3226277,15.3043478 22.5372263,18.4173913 C21.4335766,19.6521739 19.9620438,20.2608696 18.0262774,20.2782609 C18.0087591,20.2782609 18,20.2782609 17.9824818,20.2782609 L17.9824818,20.2782609 C17.9649635,20.2782609 17.9562044,20.2782609 17.9386861,20.2782609 C16.0116788,20.2608696 14.5313869,19.6521739 13.4364964,18.4173913 C10.659854,15.3217391 11.2554745,9.3826087 11.2642336,9.33043478 Z" id="Shape"></path>
                <path d="M35.9824818,33.3565217 C35.9824818,33.3478261 35.9824818,33.3391304 35.9824818,33.3304348 C35.9824818,33.2608696 35.9737226,33.1913043 35.9737226,33.1130435 C35.9211679,31.3913043 35.8072993,27.3652174 32.0058394,26.0782609 C31.979562,26.0695652 31.9445255,26.0608696 31.9182482,26.0521739 C27.9678832,25.0521739 24.6832117,22.7913043 24.6481752,22.7652174 C24.1138686,22.3913043 23.3781022,22.5217391 23.0014599,23.0521739 C22.6248175,23.5826087 22.7562044,24.3130435 23.2905109,24.6869565 C23.4394161,24.7913043 26.9255474,27.2 31.2875912,28.3130435 C33.3284672,29.0347826 33.5562044,31.2 33.6175182,33.1826087 C33.6175182,33.2608696 33.6175182,33.3304348 33.6262774,33.4 C33.6350365,34.1826087 33.5824818,35.3913043 33.4423358,36.0869565 C32.0233577,36.8869565 26.4613139,39.6521739 18,39.6521739 C9.57372263,39.6521739 3.97664234,36.8782609 2.54890511,36.0782609 C2.40875912,35.3826087 2.34744526,34.173913 2.3649635,33.3913043 C2.3649635,33.3217391 2.37372263,33.2521739 2.37372263,33.173913 C2.4350365,31.1913043 2.66277372,29.026087 4.70364964,28.3043478 C9.06569343,27.1913043 12.5518248,24.773913 12.7007299,24.6782609 C13.2350365,24.3043478 13.3664234,23.573913 12.989781,23.0434783 C12.6131387,22.5130435 11.8773723,22.3826087 11.3430657,22.7565217 C11.3080292,22.7826087 8.04087591,25.0434783 4.0729927,26.0434783 C4.0379562,26.0521739 4.01167883,26.0608696 3.98540146,26.0695652 C0.183941606,27.3652174 0.0700729927,31.3913043 0.0175182482,33.1043478 C0.0175182482,33.1826087 0.0175182482,33.2521739 0.00875912409,33.3217391 C0.00875912409,33.3304348 0.00875912409,33.3391304 0.00875912409,33.3478261 C-3.27602528e-15,33.8 -0.00875912409,36.1217391 0.455474453,37.2869565 C0.543065693,37.5130435 0.700729927,37.7043478 0.910948905,37.8347826 C1.17372263,38.0086957 7.47153285,41.9913043 18.0087591,41.9913043 C28.5459854,41.9913043 34.8437956,38 35.1065693,37.8347826 C35.3080292,37.7043478 35.4744526,37.5130435 35.5620438,37.2869565 C36,36.1304348 35.9912409,33.8086957 35.9824818,33.3565217 Z" id="Shape"></path>
            </g>
        </g>
    </g>
</svg>