<svg xmlns="http://www.w3.org/2000/svg" xmlns:xlink="http://www.w3.org/1999/xlink" width="24" height="30" viewBox="0 0 34 40">
    <defs>
        <path id="a" d="M4.848 0h24.304A4.848 4.848 0 0 1 34 4.848v24.243a4.848 4.848 0 0 1-4.848 4.848h-6.134C21.822 33.94 18.197 40 17 40c-1.221 0-4.871-6.06-6.093-6.06H4.848A4.848 4.848 0 0 1 0 29.09V4.849A4.848 4.848 0 0 1 4.848 0z"/>
    </defs>
    <g fill="none" fill-rule="evenodd">
        <g>
            <use fill="#9B59B6" xlink:href="#a"/>
            <path stroke="#8E44AD" stroke-width="1.212" d="M4.848.606A4.242 4.242 0 0 0 .606 4.848v24.243c0 2.343 1.9 4.242 4.242 4.242H10.908c.815 0 1.413.638 3.518 3.257 1.548 1.926 2.372 2.804 2.574 2.804.19 0 1.01-.885 2.535-2.802 2.091-2.628 2.676-3.259 3.483-3.259h6.134c2.343 0 4.242-1.9 4.242-4.242V4.848c0-2.343-1.9-4.242-4.242-4.242H4.848z"/>
        </g>
        <g fill="#F9ECFF" fill-rule="nonzero">
            <path d="M24.383 24.9H9.256c-.417 0-.756.394-.756.882 0 .486.339.88.756.88h15.126c.418 0 .757-.394.757-.88 0-.488-.34-.882-.756-.882zM10.202 22.608c-.418 0-.757.395-.757.882s.339.882.757.882h13.235c.418 0 .756-.395.756-.882s-.338-.882-.756-.882h-.189v-7.93h.189c.21 0 .378-.198.378-.44 0-.244-.17-.441-.378-.441H10.202c-.21 0-.378.197-.378.44s.17.44.378.44h.189v7.931h-.19zm11.533-7.93v7.93h-2.269v-7.93h2.27zm-3.782 0v7.93h-2.268v-7.93h2.268zm-6.05 0h2.269v7.93h-2.269v-7.93zM9.256 13.005H24.39c.418 0 .756-.395.756-.882 0-.387-.214-.715-.51-.834L17.13 7.355a.66.66 0 0 0-.62 0L8.946 11.32c-.325.17-.504.583-.429.989.075.406.383.696.74.696z"/>
        </g>
    </g>
</svg>
