<?xml version="1.0" encoding="UTF-8"?>
<svg width="23px" height="32px" viewBox="0 0 23 32" version="1.1" xmlns="http://www.w3.org/2000/svg" xmlns:xlink="http://www.w3.org/1999/xlink">
    <!-- Generator: Sketch 47 (45396) - http://www.bohemiancoding.com/sketch -->
    <title>budget</title>
    <desc>Created with Sketch.</desc>
    <defs></defs>
    <g id="Page-1" stroke="none" stroke-width="1" fill="none" fill-rule="evenodd">
        <g id="Artboard" transform="translate(-83.000000, -46.000000)">
            <g id="budget" transform="translate(83.000000, 46.000000)">
                <g id="money" fill-rule="nonzero">
                    <path d="M0.586645545,7.06268515 L13.2146693,4.56700198 C13.5890376,4.49210297 13.9384396,4.74170297 14.0132752,5.09110495 L18.9547089,28.6501386 C19.0296079,29.0245069 18.7800079,29.3739089 18.4306059,29.4487446 L5.77761584,31.9444277 C5.40324752,32.0193267 5.05384554,31.7697267 4.9790099,31.4203248 L0.0626059406,7.86135446 C-0.0122930693,7.48698614 0.212340594,7.13758416 0.586645545,7.06268515 Z" id="Shape" fill="#2B8272"></path>
                    <path d="M13.8885069,11.7794851 L12.740499,6.16427723 C12.7155327,5.98957624 12.5158653,5.86480792 12.3411644,5.88977426 L1.65975446,8.01108911 C1.48505347,8.03605545 1.36028515,8.23572277 1.38525149,8.41042376 L2.53325941,14.0256317 C2.55822574,14.2003327 2.75789307,14.325101 2.93259406,14.3001347 C3.10729505,14.2751683 3.23206337,14.075501 3.20709703,13.9008 L2.13398812,8.61002772 L12.1415604,6.61348119 L13.2146693,11.9042535 C13.2396356,12.0789545 13.439303,12.2037228 13.614004,12.1787564 C13.788705,12.1288871 13.9134733,11.9541861 13.8885069,11.7794851 Z" id="Shape" fill="#4B9587"></path>
                    <path d="M3.80603564,3.14455446 L16.6337267,1.89674455 C17.008095,1.87177822 17.3325307,2.12137822 17.3824,2.49568317 L20.4520554,27.6519287 C20.4770218,28.026297 20.2274218,28.3507327 19.8531168,28.375699 L7.02542574,29.6235089 C6.65105743,29.6484752 6.32662178,29.3988752 6.27675248,29.0245703 L3.20709703,3.86826139 C3.18213069,3.51885941 3.45669703,3.16945743 3.80603564,3.14455446 Z" id="Shape" fill="#359685"></path>
                    <path d="M16.0098218,3.44402376 C15.9848554,3.26932277 15.8351208,3.11958812 15.6354535,3.14455446 L4.80430891,4.19269703 C4.62960792,4.21766337 4.47987327,4.36739802 4.5048396,4.56706535 L5.07881188,10.2821386 C5.10377822,10.4568396 5.25351287,10.6065743 5.4531802,10.5816079 C5.62788119,10.5566416 5.77761584,10.4069069 5.7526495,10.2072396 L5.22854653,4.84156832 L15.3858535,3.86826139 L15.9099564,9.23393267 C15.9349228,9.40863366 16.0846574,9.55836832 16.2843248,9.53340198 C16.4590257,9.50843564 16.6087604,9.35870099 16.5837941,9.15903366 C16.5838574,9.15909703 16.0098218,3.44402376 16.0098218,3.44402376 Z" id="Shape" fill="#53A697"></path>
                    <path d="M8.22336634,0 L21.3255604,0 C21.6999287,0 22.0243644,0.299469307 22.0243644,0.69880396 L22.0243644,26.7784238 C22.0243644,27.1527921 21.724895,27.4772277 21.3255604,27.4772277 L8.22336634,27.4772277 C7.84899802,27.4772277 7.52456238,27.1777584 7.52456238,26.7784238 L7.52456238,0.69880396 C7.52462574,0.299469307 7.82409505,0 8.22336634,0 Z" id="Shape" fill="#3DB39E"></path>
                    <path d="M9.77070891,13.726099 C9.77070891,16.4962851 12.0167921,18.717402 14.7620119,18.717402 C17.5072317,18.717402 19.7533149,16.4713188 19.7533149,13.726099 C19.7533149,10.9808792 17.5072317,8.73479604 14.7620119,8.73479604 C12.0167921,8.73479604 9.77070891,10.9808792 9.77070891,13.726099 Z M20.3772198,21.2130851 C20.1775525,21.2130851 20.0028515,21.3877861 20.0028515,21.5874535 L20.0028515,25.4557149 L9.52110891,25.4557149 L9.52110891,21.5874535 C9.52110891,21.3877861 9.34640792,21.2130851 9.14674059,21.2130851 C8.94707327,21.2130851 8.77237228,21.3877861 8.77237228,21.5874535 L8.77237228,25.8300832 C8.77237228,26.0297505 8.94707327,26.2044515 9.14674059,26.2044515 L20.3772198,26.2044515 C20.5768871,26.2044515 20.7515881,26.0297505 20.7515881,25.8300832 L20.7515881,21.5874535 C20.7515881,21.3877861 20.5768871,21.2130851 20.3772198,21.2130851 Z M20.3772198,1.2478099 L9.14680396,1.2478099 C8.94713663,1.2478099 8.77243564,1.42251089 8.77243564,1.62217822 L8.77243564,5.86480792 C8.77243564,6.06447525 8.94713663,6.23917624 9.14680396,6.23917624 C9.34647129,6.23917624 9.52117228,6.06447525 9.52117228,5.86480792 L9.52117228,1.99654653 L20.0029149,1.99654653 L20.0029149,5.86480792 C20.0029149,6.06447525 20.1776158,6.23917624 20.3772832,6.23917624 C20.5769505,6.23917624 20.7516515,6.06447525 20.7516515,5.86480792 L20.7516515,1.62217822 C20.7515881,1.42251089 20.5768871,1.2478099 20.3772198,1.2478099 Z M14.0133386,22.2113584 C14.0133386,22.635596 14.3377743,22.9600317 14.7620119,22.9600317 C15.1862495,22.9600317 15.5106851,22.635596 15.5106851,22.2113584 C15.5106851,21.7871208 15.1862495,21.4626851 14.7620119,21.4626851 C14.3377743,21.4626851 14.0133386,21.8120871 14.0133386,22.2113584 Z M15.5106851,5.24090297 C15.5106851,4.81666535 15.1862495,4.4922297 14.7620119,4.4922297 C14.3377743,4.4922297 14.0133386,4.81666535 14.0133386,5.24090297 C14.0133386,5.66514059 14.3377743,5.98957624 14.7620119,5.98957624 C15.1862495,5.98957624 15.5106851,5.66514059 15.5106851,5.24090297 Z" id="Shape" fill="#81CEC0"></path>
                </g>
                <text id="Rp" transform="translate(14.109901, 13.096040) rotate(-90.000000) translate(-14.109901, -13.096040) " font-family="Lato-Bold, Lato" font-size="4" font-weight="bold" fill="#3DB39E">
                    <tspan x="11.609901" y="14.5960396">Rp</tspan>
                </text>
            </g>
        </g>
    </g>
</svg>