<?xml version="1.0" encoding="UTF-8"?>
<svg width="42px" height="18px" viewBox="0 0 42 18" version="1.1" xmlns="http://www.w3.org/2000/svg" xmlns:xlink="http://www.w3.org/1999/xlink">
    <!-- Generator: Sketch 47 (45396) - http://www.bohemiancoding.com/sketch -->
    <title>car</title>
    <desc>Created with Sketch.</desc>
    <defs></defs>
    <g id="Page-1" stroke="none" stroke-width="1" fill="none" fill-rule="evenodd">
        <g id="Artboard" transform="translate(-197.000000, -297.000000)" fill-rule="nonzero" fill="#0086CD">
            <g id="car" transform="translate(197.000000, 297.000000)">
                <g id="Group">
                    <path d="M8.864625,12.5144196 C8.2359375,12.5144196 7.72660547,13.0141607 7.72660547,13.6300982 C7.72660547,14.2459554 8.2359375,14.7457768 8.864625,14.7457768 C9.49421484,14.7457768 10.0035469,14.2460357 10.0035469,13.6300982 C10.0035469,13.0141607 9.49421484,12.5144196 8.864625,12.5144196 Z" id="Shape"></path>
                    <path d="M39.151875,3.96353571 L31.1495625,0.821892857 C29.817375,0.298526786 28.4139844,0.0335089286 26.9779453,0.0335089286 L22.0728047,0.0335089286 C20.3155312,0.0335089286 18.5581758,0.445741071 16.991543,1.22657143 L9.74071875,4.83854464 L4.53928125,5.58144643 C3.27846094,5.76152679 2.12575781,6.38075893 1.29182812,7.32559821 C0.458636719,8.26971429 0,9.47708036 0,10.7247857 L0,13.7318304 C0,14.1962946 0.384808594,14.5731696 0.858867188,14.5731696 L4.54354688,14.5731696 C4.72819922,15.3918482 5.15164453,16.1406161 5.77688672,16.7379911 C6.60827344,17.52975 7.70511328,17.9664107 8.86544531,17.9664107 C10.024957,17.9664107 11.1217969,17.52975 11.9531836,16.7379911 C12.5793281,16.1398125 13.0035938,15.3892768 13.1874258,14.5731696 L28.5814102,14.5731696 C28.7660625,15.3918482 29.1895078,16.1406161 29.8156523,16.7371875 C30.6462187,17.52975 31.7429766,17.9664107 32.9024883,17.9664107 C34.0628203,17.9664107 35.1596602,17.52975 35.9902266,16.7379911 C36.6163711,16.1406161 37.0398164,15.3917679 37.2244687,14.5731696 L41.1410508,14.5731696 C41.6151914,14.5731696 41.999918,14.1962143 41.999918,13.7318304 L41.999918,8.08794643 C42,6.26215179 40.88175,4.6434375 39.151875,3.96353571 Z M30.5105391,2.38347321 L36.6877383,4.80913393 L32.0264766,4.80913393 L29.9745469,2.19166071 C30.1541133,2.2505625 30.3327773,2.31452679 30.5105391,2.38347321 Z M22.8784336,1.71626786 L26.9779453,1.71626786 C27.1342969,1.71626786 27.2897461,1.71964286 27.444293,1.72719643 L29.8603594,4.80913393 L22.8784336,4.80913393 L22.8784336,1.71626786 Z M17.7696914,2.72675893 C18.8252695,2.20090179 19.9822383,1.87280357 21.1606172,1.76086607 L21.1606172,4.80913393 L13.5894609,4.80913393 L17.7696914,2.72675893 Z M4.65437109,7.26926786 C4.30139062,8.43958929 3.24753516,9.31797321 1.97121094,9.43746429 C2.41860937,8.33785714 3.42094922,7.49225893 4.65437109,7.26926786 Z M8.864625,16.2837321 C7.36845703,16.2837321 6.15570703,15.0957321 6.15570703,13.6300982 C6.15570703,12.1644643 7.36845703,10.9764643 8.864625,10.9764643 C10.360793,10.9764643 11.573543,12.1644643 11.573543,13.6300982 C11.573625,15.0957321 10.360875,16.2837321 8.864625,16.2837321 Z M32.9034727,16.2837321 C31.4073047,16.2837321 30.1936523,15.0957321 30.1936523,13.6300982 C30.1936523,12.1644643 31.4073047,10.9764643 32.9034727,10.9764643 C34.3996406,10.9764643 35.6123906,12.1644643 35.6123906,13.6300982 C35.6123906,15.0957321 34.3996406,16.2837321 32.9034727,16.2837321 Z M40.2821836,12.8904911 L37.2640078,12.8904911 C36.9041367,10.8510268 35.0867344,9.293625 32.9025703,9.293625 C30.7192266,9.293625 28.9018242,10.8510268 28.5419531,12.8904911 L13.2269648,12.8904911 C12.8670937,10.8510268 11.0487891,9.293625 8.86552734,9.293625 C6.68136328,9.293625 4.86396094,10.8510268 4.50408984,12.8904911 L1.71781641,12.8904911 L1.71781641,11.1337232 C4.15110937,11.1118661 6.15915234,9.31805357 6.45889453,7.007625 L10.0705664,6.49189286 L31.6031133,6.49189286 C31.6031133,6.49189286 31.6031133,6.49189286 31.6039336,6.49189286 C31.6039336,6.49189286 31.6039336,6.49189286 31.6047539,6.49189286 L37.0398164,6.49189286 L37.0398164,7.58732143 C37.0398164,9.12704464 38.3186836,10.3798125 39.8896641,10.3798125 L40.2821836,10.3798125 L40.2821836,12.8904911 Z M40.2821836,8.69713393 L39.8896641,8.69713393 C39.2660625,8.69713393 38.7576328,8.19908036 38.7576328,7.58740179 L38.7576328,6.49197321 L39.7651406,6.49197321 C40.0940859,6.948 40.2821836,7.49989286 40.2821836,8.08802679 L40.2821836,8.69713393 L40.2821836,8.69713393 Z" id="Shape"></path>
                    <path d="M32.9034727,12.5144196 C32.2738828,12.5144196 31.7645508,13.0141607 31.7645508,13.6300982 C31.7645508,14.2459554 32.2738828,14.7457768 32.9034727,14.7457768 C33.5321602,14.7457768 34.0414922,14.2460357 34.0414922,13.6300982 C34.0414922,13.0141607 33.5321602,12.5144196 32.9034727,12.5144196 Z" id="Shape"></path>
                </g>
                <path d="M23.8053867,8.84997321 L18.1086445,8.84997321 C17.6342578,8.84997321 17.2497773,9.2266875 17.2497773,9.6913125 C17.2497773,10.1559375 17.6343398,10.5326518 18.1086445,10.5326518 L23.8053867,10.5326518 C24.2796914,10.5326518 24.6642539,10.1559375 24.6642539,9.6913125 C24.6642539,9.2266875 24.2796914,8.84997321 23.8053867,8.84997321 Z" id="Shape"></path>
                <g id="SVGCleanerId_0" transform="translate(7.710938, 12.455357)">
                    <path d="M1.1536875,0.0590625 C0.525,0.0590625 0.0156679687,0.558803571 0.0156679687,1.17474107 C0.0156679687,1.79059821 0.525,2.29041964 1.1536875,2.29041964 C1.78327734,2.29041964 2.29260937,1.79067857 2.29260937,1.17474107 C2.29260937,0.558803571 1.78327734,0.0590625 1.1536875,0.0590625 Z" id="Shape"></path>
                </g>
                <g id="SVGCleanerId_1" transform="translate(31.746094, 12.455357)">
                    <path d="M1.15737891,0.0590625 C0.527789062,0.0590625 0.0184570312,0.558803571 0.0184570312,1.17474107 C0.0184570312,1.79059821 0.527789062,2.29041964 1.15737891,2.29041964 C1.78606641,2.29041964 2.29539844,1.79067857 2.29539844,1.17474107 C2.29539844,0.558803571 1.78606641,0.0590625 1.15737891,0.0590625 Z" id="Shape"></path>
                </g>
                <path d="M8.864625,12.5144196 C8.2359375,12.5144196 7.72660547,13.0141607 7.72660547,13.6300982 C7.72660547,14.2459554 8.2359375,14.7457768 8.864625,14.7457768 C9.49421484,14.7457768 10.0035469,14.2460357 10.0035469,13.6300982 C10.0035469,13.0141607 9.49421484,12.5144196 8.864625,12.5144196 Z" id="Shape"></path>
                <path d="M32.9034727,12.5144196 C32.2738828,12.5144196 31.7645508,13.0141607 31.7645508,13.6300982 C31.7645508,14.2459554 32.2738828,14.7457768 32.9034727,14.7457768 C33.5321602,14.7457768 34.0414922,14.2460357 34.0414922,13.6300982 C34.0414922,13.0141607 33.5321602,12.5144196 32.9034727,12.5144196 Z" id="Shape"></path>
            </g>
        </g>
    </g>
</svg>