<?xml version="1.0" encoding="UTF-8"?>
<svg width="42px" height="42px" viewBox="0 0 42 42" version="1.1" xmlns="http://www.w3.org/2000/svg" xmlns:xlink="http://www.w3.org/1999/xlink">
    <!-- Generator: Sketch 47 (45396) - http://www.bohemiancoding.com/sketch -->
    <title>clock</title>
    <desc>Created with Sketch.</desc>
    <defs></defs>
    <g id="Page-1" stroke="none" stroke-width="1" fill="none" fill-rule="evenodd">
        <g id="Artboard" transform="translate(-249.000000, -297.000000)" fill-rule="nonzero" fill="#FF860F">
            <g id="clock" transform="translate(249.000000, 297.000000)">
                <path d="M41.8314474,20.9148947 C41.8314474,32.4477632 32.4477632,41.832 20.9154474,41.832 C9.38423684,41.8314474 0,32.4477632 0,20.9148947 C0,9.38202632 9.38423684,0 20.916,0 C25.1314737,0 29.2358684,1.28818421 32.6925789,3.64294737 L35.9066842,0.428289474 L38.4924474,10.3458158 L28.5732632,7.76060526 L30.8219211,5.51028947 C27.8824737,3.61918421 24.4456579,2.58134211 20.9137895,2.58134211 C10.8039474,2.58134211 2.57968421,10.8056053 2.57968421,20.9143421 C2.57968421,31.0241842 10.8039474,39.2495526 20.9137895,39.2495526 C31.0230789,39.2495526 39.2473421,31.0241842 39.2473421,20.9143421 L41.8314474,20.9143421 L41.8314474,20.9148947 Z M15.7107632,21.1055526 C13.9500789,22.3451053 12.7497632,23.4144474 12.1125789,24.3168947 C11.4748421,25.2171316 11.1543158,26.3013947 11.1543158,27.5669211 L11.1543158,27.5707895 L20.5733684,27.5707895 L20.5733684,25.1795526 L14.5286842,25.1795526 L14.5380789,25.1596579 C14.9951053,24.5230263 15.8439474,23.8084737 17.0890263,23.0187632 C18.4330263,22.1588684 19.3503947,21.3862895 19.8433421,20.6993684 C20.3313158,20.0085789 20.5739211,19.1398421 20.5739211,18.0931579 C20.5739211,16.8143684 20.1450789,15.7726579 19.2879474,14.9641579 C18.4181053,14.1551053 17.3106316,13.7522368 15.9500526,13.7522368 C14.4927632,13.7522368 13.3427368,14.1904737 12.5171053,15.0680526 C11.6870526,15.9483947 11.2941316,17.1332368 11.3372368,18.6347368 L13.9987105,18.6347368 C13.9732895,17.8278947 14.1346579,17.1945789 14.4828158,16.7253947 C14.8320789,16.2584211 15.3134211,16.0263158 15.9323684,16.0263158 C16.5087632,16.0263158 16.9801579,16.2136579 17.3316316,16.5877895 C17.6880789,16.9597105 17.8616053,17.4504474 17.8616053,18.0644211 C17.8616053,18.6286579 17.7002368,19.1359737 17.3786053,19.5968684 C17.0591842,20.0522368 16.5037895,20.5584474 15.7107632,21.1055526 Z M26.8507105,27.5696842 L26.8507105,24.5263421 L21.3851842,24.5263421 L21.3851842,23.3514474 L21.3851842,22.1793158 L26.4898421,13.7561053 L28.0073684,13.7561053 L29.5237895,13.7561053 L29.5237895,22.3705263 L31.0777895,22.3705263 L31.0777895,24.5285526 L29.5237895,24.5285526 L29.5237895,27.5713421 L26.8507105,27.5696842 L26.8507105,27.5696842 Z M26.8507105,22.3683158 L26.8507105,16.6132105 L23.5001053,22.1787632 L23.3868158,22.3677632 L26.8507105,22.3677632 L26.8507105,22.3683158 Z M21.7620789,4.70178947 L20.4711316,4.70178947 L20.4711316,7.28976316 L21.7620789,7.28976316 L21.7620789,4.70178947 Z M21.7620789,34.0310526 L20.4711316,34.0310526 L20.4711316,36.6190263 L21.7620789,36.6190263 L21.7620789,34.0310526 Z M37.0738421,21.3056053 L37.0738421,20.0146579 L34.4847632,20.0146579 L34.4847632,21.3056053 L37.0738421,21.3056053 Z M7.74513158,21.3056053 L7.74513158,20.0146579 L5.15826316,20.0146579 L5.15826316,21.3056053 L7.74513158,21.3056053 Z" id="Shape"></path>
            </g>
        </g>
    </g>
</svg>