<svg xmlns="http://www.w3.org/2000/svg" xmlns:xlink="http://www.w3.org/1999/xlink" width="24" height="30" viewBox="0 0 34 40">
    <defs>
        <path id="a" d="M4.848 0h24.304A4.848 4.848 0 0 1 34 4.848v24.243a4.848 4.848 0 0 1-4.848 4.848h-6.134C21.822 33.94 18.197 40 17 40c-1.221 0-4.871-6.06-6.093-6.06H4.848A4.848 4.848 0 0 1 0 29.09V4.849A4.848 4.848 0 0 1 4.848 0z"/>
    </defs>
    <g fill="none" fill-rule="evenodd">
        <g>
            <use fill="#34495E" xlink:href="#a"/>
            <path stroke="#2C3E50" stroke-width="1.212" d="M4.848.606A4.242 4.242 0 0 0 .606 4.848v24.243c0 2.343 1.9 4.242 4.242 4.242H10.908c.815 0 1.413.638 3.518 3.257 1.548 1.926 2.372 2.804 2.574 2.804.19 0 1.01-.885 2.535-2.802 2.091-2.628 2.676-3.259 3.483-3.259h6.134c2.343 0 4.242-1.9 4.242-4.242V4.848c0-2.343-1.9-4.242-4.242-4.242H4.848z"/>
        </g>
        <g fill="#F1F8FF" fill-rule="nonzero">
            <path d="M10.934 24.33h2.605a.47.47 0 0 0 .462.404h5.923a.47.47 0 0 0 .462-.403h2.605c.44 0 .798-.357.798-.796H10.137c0 .44.357.796.797.796zM26.926 16.149c-.664-.537-1.6-.546-2.215-.478.018-.428.028-.866.028-1.322H8.5c0 4.381.664 7.542 4.867 8.722h6.505c1.665-.466 2.768-1.25 3.5-2.292 1.595-.031 4.16-.658 4.257-2.856.042-.963-.36-1.497-.703-1.774zm-2.885 3.373c.306-.784.487-1.665.586-2.634.431-.07 1.174-.116 1.55.19.068.056.283.23.258.794-.05 1.138-1.467 1.521-2.394 1.65zM15.115 13.734s3.091-.227 1.675-2.828c-1.138-2.089-.878-3.314.577-4.421 0 0-4.767 1.212-1.987 4.963 1.02 1.634-.265 2.286-.265 2.286z"/>
            <path d="M17.199 13.526s2.476-.521 1.128-2.51c-.489-.862.186-1.17.186-1.17s-1.594.051-.921 1.418c.538 1.1.379 1.724-.393 2.262z"/>
        </g>
    </g>
</svg>
