<svg xmlns="http://www.w3.org/2000/svg" xmlns:xlink="http://www.w3.org/1999/xlink" width="24" height="30" viewBox="0 0 34 40">
    <defs>
        <path id="a" d="M4.848 0h24.304A4.848 4.848 0 0 1 34 4.848v24.243a4.848 4.848 0 0 1-4.848 4.848h-6.134C21.822 33.94 18.197 40 17 40c-1.221 0-4.871-6.06-6.093-6.06H4.848A4.848 4.848 0 0 1 0 29.09V4.849A4.848 4.848 0 0 1 4.848 0z"/>
    </defs>
    <g fill="none" fill-rule="evenodd">
        <g>
            <use fill="#8585FD" xlink:href="#a"/>
            <path stroke="#7676F0" stroke-width="1.212" d="M4.848.606A4.242 4.242 0 0 0 .606 4.848v24.243c0 2.343 1.9 4.242 4.242 4.242H10.908c.815 0 1.413.638 3.518 3.257 1.548 1.926 2.372 2.804 2.574 2.804.19 0 1.01-.885 2.535-2.802 2.091-2.628 2.676-3.259 3.483-3.259h6.134c2.343 0 4.242-1.9 4.242-4.242V4.848c0-2.343-1.9-4.242-4.242-4.242H4.848z"/>
        </g>
        <g fill="#F6F6FF" fill-rule="nonzero">
            <path d="M21.278 9.456l-.232.23v-.23h-1.144c-.516.79-1.605 1.337-2.87 1.337-1.263 0-2.352-.547-2.868-1.337H13.02v.23l-.232-.23-4.115 4.082 2.25 2.233 2.097-2.08V24.09h8.025V13.692l2.097 2.08 2.25-2.234-4.114-4.082z"/>
            <path d="M21.045 25.007H13.02a.922.922 0 0 1-.925-.917v-8.183l-.517.512a.93.93 0 0 1-1.31 0l-2.25-2.233a.912.912 0 0 1 0-1.297l4.116-4.081c.2-.2.49-.297.77-.262a.982.982 0 0 1 .116-.007h1.144c.314 0 .607.158.777.419.364.557 1.185.917 2.092.917s1.728-.36 2.092-.917a.927.927 0 0 1 .777-.419h1.144c.04 0 .078.002.116.007a.931.931 0 0 1 .77.261l4.115 4.082c.36.358.36.938 0 1.297l-2.25 2.233a.927.927 0 0 1-1.309 0l-.518-.513v8.184a.922.922 0 0 1-.925.917zm-7.1-1.835h6.175v-9.48c0-.371.225-.706.57-.848a.93.93 0 0 1 1.009.2l1.442 1.43.943-.936-2.96-2.937a.915.915 0 0 1-.692-.227h-.08c-.763.834-1.987 1.336-3.32 1.336-1.33 0-2.554-.502-3.319-1.336h-.08a.925.925 0 0 1-.692.227l-2.96 2.937.942.936 1.442-1.43a.93.93 0 0 1 1.009-.2.917.917 0 0 1 .571.848v9.48z"/>
        </g>
    </g>
</svg>
