<svg xmlns="http://www.w3.org/2000/svg" width="26" height="26" viewBox="0 0 26 26">
    <path fill="#ffffff" fill-rule="nonzero" d="M22.139.2H3.448A3.448 3.448 0 0 0 0 3.648v18.69a3.448 3.448 0 0 0 3.448 3.449h9.218l.016-9.144h-2.376a.56.56 0 0 1-.56-.558l-.011-2.947a.56.56 0 0 1 .56-.563h2.371V9.727c0-3.305 2.019-5.104 4.967-5.104h2.419c.31 0 .56.25.56.56V7.67c0 .31-.25.56-.56.56h-1.484c-1.604 0-1.914.763-1.914 1.88v2.466h3.523a.56.56 0 0 1 .556.627l-.349 2.947a.56.56 0 0 1-.556.494H16.67l-.016 9.144h5.485a3.448 3.448 0 0 0 3.448-3.448V3.648A3.448 3.448 0 0 0 22.139.2z"/>
</svg>
