<svg xmlns="http://www.w3.org/2000/svg" width="15" height="15" viewBox="0 0 15 15">
    <path fill="#767984" fill-rule="nonzero" d="M12.3.778H1.915A1.915 1.915 0 0 0 0 2.693v10.384c0 1.058.858 1.916 1.916 1.916h5.12l.01-5.08h-1.32a.311.311 0 0 1-.312-.31l-.006-1.638c0-.172.14-.312.312-.312h1.317V6.07c0-1.836 1.121-2.836 2.759-2.836h1.344c.172 0 .311.14.311.311v1.381c0 .172-.139.311-.31.311h-.826c-.89 0-1.063.424-1.063 1.045v1.37h1.957c.187 0 .332.163.31.348l-.194 1.637a.311.311 0 0 1-.31.275H9.261l-.009 5.08H12.3a1.915 1.915 0 0 0 1.916-1.916V2.693A1.916 1.916 0 0 0 12.299.778z" opacity=".4"/>
</svg>
