<svg xmlns="http://www.w3.org/2000/svg" width="161" height="27" viewBox="0 0 161 27">
    <g fill="none" fill-rule="evenodd">
        <g fill-rule="nonzero">
            <path fill="#FFD6CF" d="M9.665 6.128l.267-1.765-1.49-.094-.297 1.608z"/>
            <path fill="#831232" d="M9.78 5.48l.152-1.117-1.48-.152-.19 1.014z" opacity=".32"/>
            <path fill="#998269" d="M16.034 3.942h1.005v8.468h-1.005z"/>
            <path fill="#998269" d="M16.034 10.733h1.029v13.264h-1.029z"/>
            <path fill="#836F5A" d="M16.034 10.19h1.005v2.221h-1.005z"/>
            <path fill="#347642" d="M1 19.915l3.379-3.167 1.219-4.08h1.864L6.12 17.44a.897.897 0 0 1-.184.345.912.912 0 0 1-.106.127l-3.96 3.748L1 19.915z"/>
            <path fill="#2B5448" d="M5.598 12.667l-.47 1.575h1.891l.443-1.575z" opacity=".53"/>
            <path fill="#FFD6CF" d="M11.125.417a1.183 1.183 0 0 0-.821-.367L8.918 0C8.267-.021 7.72.478 7.696 1.114L7.61 3.488c-.011.307.101.601.316.828.215.226.507.356.821.367l1.386.05h.043c.298 0 .582-.11.803-.31.23-.21.364-.496.376-.803l.087-2.375a1.133 1.133 0 0 0-.316-.828z"/>
            <path fill="#AA6518" d="M4.515 4.243L3.343 3.97a.217.217 0 0 0-.263.168l-.635 3.412c-.028.15.07.296.222.33l1.15.26.698-3.898z"/>
            <path fill="#FFB057" d="M5.48 10.626L3.57 10.3a.468.468 0 0 1-.385-.539l1.18-6.588a.476.476 0 0 1 .55-.378l1.91.328a.468.468 0 0 1 .386.538l-1.18 6.588a.476.476 0 0 1-.55.378z"/>
            <path fill="#AA6518" d="M6.824 3.122l-.074-.013-1.156 6.459a.476.476 0 0 1-.55.378L3.207 9.63l-.023.13a.467.467 0 0 0 .386.538l1.91.327a.476.476 0 0 0 .55-.378L7.21 3.66a.468.468 0 0 0-.387-.538z" opacity=".48"/>
            <path fill="#C71C4B" d="M11.348.744a1.183 1.183 0 0 0-1.04-.694L8.923 0C8.27-.021 7.724.478 7.7 1.114L7.649 2.52c.568-.102 2.581-.539 3.7-1.775z"/>
            <path fill="#71CE93" d="M10.273 7.497c.15-.837-.427-1.642-1.282-1.788l-1.615-.277a.476.476 0 0 0-.55.378l-1.228 6.857 1.536.264c.009.017.017.035.027.052l2.57 4.438v4.895l1.866.212V17.24a.89.89 0 0 0-.016-.163.889.889 0 0 0-.12-.372l-2.167-3.744.598-3.337.381-2.128z"/>
            <path fill="#71CE93" d="M7.66 7.442l3.549 3.472.022-.022.002.03 4.46-.189-.075-1.69-3.716.157L9.09 6.563z"/>
            <path fill="#D8EDDE" d="M2.641 23.405L.037 20.857 1 19.915l1.976 2.441a.566.566 0 0 1-.044.762l-.29.287z"/>
            <path fill="#FFD6CF" d="M15.618 9.044l2.342-.116-.68 1.767-1.587.038z"/>
            <path fill="#3F8E50" d="M11.581 17.078a.889.889 0 0 0-.12-.372l-2.167-3.744.231-1.289-3.641-.605-.286 1.6 1.536.263c.009.017.017.035.027.052l2.57 4.438v4.895l1.866.462V17.24a.885.885 0 0 0-.016-.163z"/>
            <ellipse cx="9.115" cy="2.366" fill="#FFD6CF" rx="1" ry="1"/>
            <path fill="#D8EDDE" d="M13.414 23.648H9.73v-1.332l3.161.36a.58.58 0 0 1 .52.568l.002.404z"/>
        </g>
        <text fill="#FAFAFB" font-family="Raleway-SemiBold, Raleway" font-size="24" font-weight="500" transform="translate(0 -2)">
            <tspan x="26" y="23">Travel</tspan> <tspan x="97.832" y="23" font-family="Raleway-Regular, Raleway" font-weight="normal">Tegal</tspan>
        </text>
    </g>
</svg>
