<svg xmlns="http://www.w3.org/2000/svg" width="40" height="26" viewBox="0 0 40 26">
    <g fill="#A2A9AC" fill-rule="nonzero">
        <path d="M14.149 15.644h6.211c-1.09 3.094-4.043 5.312-7.5 5.287-4.195-.031-7.663-3.4-7.826-7.606-.175-4.51 3.43-8.234 7.885-8.234 2.037 0 3.896.779 5.297 2.055a.854.854 0 0 0 1.164-.004l2.282-2.155a.858.858 0 0 0 .002-1.245A12.648 12.648 0 0 0 13.172.248C6.16.11.25 5.88.2 12.92c-.049 7.092 5.664 12.856 12.72 12.856 6.784 0 12.326-5.331 12.697-12.047.01-.084.017-2.93.017-2.93H14.149a.854.854 0 0 0-.853.855v3.135c0 .472.382.855.853.855zM36.158 11.083V8.021a.748.748 0 0 0-.747-.75h-2.568a.748.748 0 0 0-.747.75v3.062h-3.051a.748.748 0 0 0-.747.75v2.578c0 .414.334.75.747.75h3.051v3.062c0 .414.334.75.747.75h2.568a.748.748 0 0 0 .747-.75v-3.062h3.052a.748.748 0 0 0 .747-.75v-2.578a.748.748 0 0 0-.747-.75h-3.052z"/>
    </g>
</svg>
