<svg xmlns="http://www.w3.org/2000/svg" width="27" height="26" viewBox="0 0 27 26">
    <g fill="#A2A9AC" fill-rule="nonzero" transform="translate(.6 .2)">
        <path d="M17.942 0H7.613C3.415 0 0 3.415 0 7.613v10.33c0 4.197 3.415 7.612 7.613 7.612h10.33c4.197 0 7.612-3.415 7.612-7.613V7.613C25.555 3.415 22.14 0 17.942 0zm5.042 17.942a5.042 5.042 0 0 1-5.042 5.042H7.613a5.042 5.042 0 0 1-5.042-5.042V7.613a5.042 5.042 0 0 1 5.042-5.042h10.33a5.042 5.042 0 0 1 5.041 5.042v10.33z"/>
        <path d="M12.778 6.168a6.617 6.617 0 0 0-6.61 6.61 6.617 6.617 0 0 0 6.61 6.609 6.617 6.617 0 0 0 6.61-6.61 6.617 6.617 0 0 0-6.61-6.609zm0 10.648a4.039 4.039 0 1 1 0-8.077 4.039 4.039 0 0 1 0 8.077z"/>
        <circle cx="19.4" cy="6.218" r="1.584"/>
    </g>
</svg>
