<svg xmlns="http://www.w3.org/2000/svg" width="13" height="12" viewBox="0 0 13 12">
    <path fill="#909090" fill-rule="nonzero" d="M12.13 2.503c-.58-.768-1.37-1.375-2.365-1.82C8.768.238 7.68.015 6.5.015c-1.18 0-2.268.223-3.265.668-.996.445-1.784 1.052-2.364 1.82C.29 3.271 0 4.11 0 5.015c0 .781.219 1.513.656 2.195.438.683 1.037 1.256 1.796 1.72a5.254 5.254 0 0 1-.189.593 6.327 6.327 0 0 1-.196.461c-.058.12-.136.253-.235.398-.1.146-.174.25-.225.31a121.776 121.776 0 0 0-.533.636l-.051.066-.044.07c-.024.04-.035.064-.032.075a.222.222 0 0 1-.015.078c-.012.041-.01.073.004.093v.008c.02.089.058.16.116.215a.28.28 0 0 0 .196.082h.036c.314-.042.59-.099.827-.172a7.757 7.757 0 0 0 3.337-1.89c.363.041.713.062 1.052.062 1.18 0 2.268-.223 3.265-.668.996-.446 1.784-1.052 2.364-1.82.58-.769.871-1.606.871-2.512 0-.906-.29-1.744-.87-2.512zm-.817 4.504c-.505.615-1.187 1.103-2.046 1.465a7.052 7.052 0 0 1-2.767.543c-.295 0-.61-.02-.943-.063l-.414-.046-.312.297a7.093 7.093 0 0 1-1.995 1.336c.223-.422.392-.87.508-1.344l.196-.75-.631-.39c-.629-.386-1.116-.843-1.462-1.372C1.101 6.154.93 5.598.93 5.015c0-.714.252-1.378.758-1.992.505-.615 1.187-1.103 2.045-1.465A7.049 7.049 0 0 1 6.5 1.015c.987 0 1.909.181 2.767.543.859.362 1.54.85 2.046 1.465.506.614.758 1.278.758 1.992 0 .713-.252 1.378-.758 1.992z" opacity=".8"/>
</svg>
