<?xml version="1.0" encoding="UTF-8"?>
<svg width="42px" height="42px" viewBox="0 0 42 42" version="1.1" xmlns="http://www.w3.org/2000/svg" xmlns:xlink="http://www.w3.org/1999/xlink">
    <!-- Generator: Sketch 47 (45396) - http://www.bohemiancoding.com/sketch -->
    <title>kuliner</title>
    <desc>Created with Sketch.</desc>
    <defs></defs>
    <g id="Page-1" stroke="none" stroke-width="1" fill="none" fill-rule="evenodd">
        <g id="Artboard" transform="translate(-185.000000, -361.000000)" fill-rule="nonzero" fill="#0086CD">
            <g id="kuliner" transform="translate(185.000000, 361.000000)">
                <path d="M11.586668,2.61906433 C10.3176445,0.930222222 8.60442187,0.000245614035 6.76265625,0.000245614035 C4.92097266,0.000245614035 3.20783203,0.930304094 1.93872656,2.61898246 C0.731800781,4.22505263 0.0671835938,6.3454386 0.0671835938,8.58961404 C0.0671835938,10.8338713 0.731800781,12.9541754 1.93880859,14.5602456 C2.6446875,15.4995556 3.48821484,16.2032398 4.41451172,16.6435439 L2.99791406,37.9021754 C2.92884375,38.9380936 3.29691797,39.9670526 4.00763672,40.7250994 C4.7184375,41.4833099 5.72282812,41.9182105 6.76314844,41.9182105 C7.80322266,41.9182105 8.80712109,41.4835556 9.51767578,40.7257544 C10.2283945,39.9676257 10.5964688,38.9385029 10.5272344,37.9023392 L9.11063672,16.6439532 C10.0370977,16.2035673 10.880707,15.499883 11.586668,14.5604094 C12.7935117,12.9543392 13.458293,10.8338713 13.458293,8.58977778 C13.458293,6.34568421 12.7936758,4.2251345 11.586668,2.61906433 Z M8.11075781,39.4119649 C7.75802344,39.7882456 7.27937109,39.995462 6.76306641,39.995462 C6.24635156,39.995462 5.76737109,39.7880819 5.41430859,39.4115556 C5.06141016,39.0349474 4.88586328,38.5443743 4.92007031,38.0299766 L6.31082812,17.1581871 C6.46061719,17.1707135 6.61098047,17.1793099 6.76265625,17.1793099 C6.91425,17.1793099 7.06453125,17.1706316 7.21423828,17.1581871 L8.60499609,38.0299766 C8.63920312,38.5446199 8.46382031,39.0354386 8.11075781,39.4119649 Z M6.76265625,15.2563977 C6.41755078,15.2563977 6.08114063,15.2035906 5.756625,15.1058363 C5.72971875,15.0959298 5.70248438,15.0868421 5.67459375,15.0793099 C3.56778516,14.3890526 1.9936875,11.7423158 1.9936875,8.58969591 C1.9936875,4.91375439 4.1330625,1.92299415 6.76265625,1.92299415 C9.39233203,1.92299415 11.5317891,4.91367251 11.5317891,8.58969591 C11.5317891,12.2657193 9.39241406,15.2563977 6.76265625,15.2563977 Z" id="Shape"></path>
                <path d="M41.9327344,25.0460819 L41.9327344,1.08250292 L41.9246133,1.08602339 C41.9524219,0.874222222 41.9103398,0.651859649 41.7890156,0.45594152 C41.5092891,0.00433918129 40.915793,-0.135415205 40.4630625,0.143766082 C36.5333555,2.56854971 34.1869336,6.76846784 34.1861953,11.3788889 C34.1861953,11.3795439 34.1861133,11.380117 34.1861133,11.3806901 L34.1861133,23.9709474 C34.1861133,25.0756374 35.0706562,25.9754035 36.1687266,26.008807 L36.1687266,39.0280702 C36.1687266,40.6141637 37.4616211,41.904538 39.0508125,41.904538 C40.6400039,41.904538 41.9329805,40.6141637 41.9329805,39.0280702 L41.9329805,25.0509123 C41.9328984,25.0492749 41.9327344,25.0477193 41.9327344,25.0460819 Z M36.2311523,24.0894152 C36.1655273,24.0893333 36.1126992,24.0364444 36.1126992,23.9711111 L36.1126992,11.3824094 C36.1126992,11.382 36.1127812,11.3816725 36.1127812,11.3812632 C36.1127812,8.05556725 37.5411914,4.97982456 40.0061484,2.85526316 L40.0061484,24.0894152 L36.2311523,24.0894152 Z M40.0063945,39.0282339 C40.0063945,39.5540936 39.5777812,39.9819532 39.0507305,39.9819532 C38.5238437,39.9819532 38.0951484,39.5541754 38.0951484,39.0282339 L38.0951484,26.0122456 L40.0063945,26.0122456 L40.0063945,39.0282339 Z" id="Shape"></path>
                <path d="M27.299918,0.000245614035 C26.7679453,0.000245614035 26.336625,0.430643275 26.336625,0.961660819 L26.336625,11.8832982 L23.88225,11.8832982 L23.88225,0.961660819 C23.88225,0.430725146 23.4509297,0.000245614035 22.918957,0.000245614035 C22.3869844,0.000245614035 21.9556641,0.430643275 21.9556641,0.961660819 L21.9556641,11.8832982 L19.5012891,11.8832982 L19.5012891,0.961660819 C19.5012891,0.430725146 19.0699687,0.000245614035 18.5379961,0.000245614035 C18.0060234,0.000245614035 17.5747031,0.430643275 17.5747031,0.961660819 L17.5747031,14.8784795 C17.5747031,16.4454971 18.8521758,17.7205614 20.4223359,17.7205614 L20.5936992,17.7205614 L19.2422344,37.996 C19.1743945,39.0072749 19.5335273,40.012 20.2276758,40.7526082 C20.9219062,41.493462 21.9027539,41.9182924 22.918875,41.9182924 C23.934832,41.9182924 24.9156797,41.493462 25.6099922,40.7526901 C26.3040586,40.0121637 26.6631914,39.0073567 26.5954336,37.9964094 L25.2438867,17.7205614 L25.4155781,17.7205614 C26.9858203,17.7205614 28.263293,16.4455789 28.263293,14.8784795 L28.263293,0.961578947 C28.2631289,0.430643275 27.8318086,0.000245614035 27.299918,0.000245614035 Z M24.2029102,39.4390643 C23.8667461,39.7978246 23.4106523,39.9953801 22.918793,39.9953801 C22.4269336,39.9953801 21.9708398,39.7978246 21.6346758,39.4390643 C21.2986758,39.0805497 21.1316602,38.6136374 21.1644727,38.1239649 L22.5243867,17.7203977 L23.3131172,17.7203977 L24.6731133,38.1242105 C24.7059258,38.6136374 24.5389922,39.0805497 24.2029102,39.4390643 Z M26.336543,14.8783977 C26.336625,15.385345 25.9234336,15.7976491 25.4154961,15.7976491 L21.5910352,15.7976491 C21.5898047,15.797731 21.5884922,15.7975673 21.5872617,15.7976491 L20.422418,15.7976491 C19.9144805,15.7976491 19.5013711,15.385345 19.5013711,14.8783977 L19.5013711,13.805883 L26.336543,13.805883 L26.336543,14.8783977 Z" id="Shape"></path>
            </g>
        </g>
    </g>
</svg>