<svg xmlns="http://www.w3.org/2000/svg" width="16" height="24" viewBox="0 0 16 24">
    <g fill="#FFF" fill-rule="nonzero">
        <path d="M8.014 0C3.62 0 .046 3.65.046 8.138c0 1.803 1.04 4.546 3.271 8.63A93.094 93.094 0 0 0 6.42 22.01l1.096 1.697c.11.17.297.274.498.274.2 0 .388-.103.498-.274l1.096-1.697a92.072 92.072 0 0 0 3.103-5.24c2.232-4.085 3.271-6.827 3.271-8.63C15.982 3.65 12.408 0 8.014 0zm3.654 16.174a90.712 90.712 0 0 1-3.057 5.164l-.597.925-.597-.925a91.738 91.738 0 0 1-3.057-5.164c-2.07-3.789-3.12-6.492-3.12-8.036 0-3.815 3.039-6.918 6.774-6.918s6.774 3.103 6.774 6.918c0 1.544-1.05 4.247-3.12 8.036z"/>
        <path d="M8.014 3.575c-2.436 0-4.418 2.024-4.418 4.512 0 2.488 1.982 4.513 4.418 4.513s4.418-2.025 4.418-4.513-1.982-4.512-4.418-4.512zm0 7.805c-1.778 0-3.224-1.477-3.224-3.293 0-1.815 1.446-3.292 3.224-3.292 1.778 0 3.224 1.477 3.224 3.292 0 1.816-1.446 3.293-3.224 3.293z"/>
    </g>
</svg>
