<?xml version="1.0" encoding="UTF-8"?>
<svg width="27px" height="40px" viewBox="0 0 27 40" version="1.1" xmlns="http://www.w3.org/2000/svg" xmlns:xlink="http://www.w3.org/1999/xlink">
    <!-- Generator: Sketch 47 (45396) - http://www.bohemiancoding.com/sketch -->
    <title>lokasi</title>
    <desc>Created with Sketch.</desc>
    <defs></defs>
    <g id="Page-1" stroke="none" stroke-width="1" fill="none" fill-rule="evenodd">
        <g id="Artboard" transform="translate(-39.000000, -42.000000)" fill-rule="nonzero" fill="#949CA1">
            <g id="lokasi" transform="translate(39.000000, 42.000000)">
                <path d="M13.5234537,0 C6.10917313,0 0.0771313433,6.08463415 0.0771313433,13.5636585 C0.0771313433,16.5691057 1.83124478,21.1398374 5.59746269,27.9478862 C8.1674597,32.593252 10.725609,36.5169919 10.8335284,36.6822764 L12.6825045,39.5093496 C12.8689254,39.7944715 13.1847851,39.9660163 13.5234537,39.9660163 C13.8621224,39.9660163 14.1779821,39.7944715 14.364403,39.5093496 L16.2132985,36.682439 C16.3201701,36.5190244 18.8597015,32.629187 21.4494448,27.9478862 C25.2156627,21.1401626 26.9697761,16.5694309 26.9697761,13.5636585 C26.9697761,6.08463415 20.9377343,0 13.5234537,0 Z M19.6900119,26.9573984 C17.1362955,31.573252 14.6369015,35.4020325 14.5315612,35.5629268 L13.5234537,37.1043089 L12.5156687,35.5633333 C12.4097642,35.4011382 9.89118806,31.5380488 7.35689552,26.9573984 C3.86341791,20.6422764 2.09205672,16.135935 2.09205672,13.5636585 C2.09205672,7.20536585 7.22012239,2.03252033 13.5234537,2.03252033 C19.8267851,2.03252033 24.9548507,7.20536585 24.9548507,13.5636585 C24.9548507,16.1362602 23.1834896,20.642439 19.6900119,26.9573984 Z" id="Shape"></path>
                <path d="M13.5234537,5.95861789 C9.41260299,5.95861789 6.06822985,9.33227642 6.06822985,13.4789431 C6.06822985,17.6256098 9.41260299,20.9992683 13.5234537,20.9992683 C17.6343045,20.9992683 20.9786776,17.6256098 20.9786776,13.4789431 C20.9786776,9.33227642 17.6343045,5.95861789 13.5234537,5.95861789 Z M13.5234537,18.966748 C10.5236328,18.966748 8.08315522,16.5049593 8.08315522,13.4789431 C8.08315522,10.4529268 10.5236328,7.99113821 13.5234537,7.99113821 C16.5233552,7.99113821 18.9637522,10.4529268 18.9637522,13.4789431 C18.9637522,16.5049593 16.5233552,18.966748 13.5234537,18.966748 Z" id="Shape"></path>
            </g>
        </g>
    </g>
</svg>