<svg xmlns="http://www.w3.org/2000/svg" width="28" height="20" viewBox="0 0 28 20">
    <g fill="#FFF" fill-rule="nonzero">
        <path d="M21.97 15.226a.435.435 0 0 1-.299-.118l-5.035-4.694a.432.432 0 0 1-.019-.614.438.438 0 0 1 .619-.02l5.035 4.695c.175.163.184.439.019.614a.438.438 0 0 1-.32.137zM5.164 15.226a.44.44 0 0 1-.32-.137.432.432 0 0 1 .02-.614L9.901 9.78a.44.44 0 0 1 .618.019.432.432 0 0 1-.019.614l-5.037 4.694a.435.435 0 0 1-.299.118z"/>
        <path d="M24.948 19.59H2.188A2.183 2.183 0 0 1 0 17.417V2.593C0 1.393.982.419 2.188.419h22.76c1.206 0 2.188.975 2.188 2.174v14.824c0 1.199-.982 2.173-2.188 2.173zM2.188 1.29A1.31 1.31 0 0 0 .875 2.593v14.824c0 .719.589 1.304 1.313 1.304h22.76a1.31 1.31 0 0 0 1.313-1.304V2.593a1.31 1.31 0 0 0-1.313-1.304H2.188z"/>
        <path d="M13.568 12.19a2.456 2.456 0 0 1-1.607-.576L.726 1.874a.434.434 0 0 1-.043-.614.442.442 0 0 1 .618-.042l11.235 9.74c.56.484 1.504.484 2.063 0l11.22-9.724a.44.44 0 0 1 .618.042.434.434 0 0 1-.042.614l-11.22 9.723a2.454 2.454 0 0 1-1.607.577z"/>
    </g>
</svg>
