<svg xmlns="http://www.w3.org/2000/svg" xmlns:xlink="http://www.w3.org/1999/xlink" width="24" height="30" viewBox="0 0 34 40">
    <defs>
        <path id="a" d="M4.848 0h24.304A4.848 4.848 0 0 1 34 4.848v24.243a4.848 4.848 0 0 1-4.848 4.848h-6.134C21.822 33.94 18.197 40 17 40c-1.221 0-4.871-6.06-6.093-6.06H4.848A4.848 4.848 0 0 1 0 29.09V4.849A4.848 4.848 0 0 1 4.848 0z"/>
    </defs>
    <g fill="none" fill-rule="evenodd">
        <g>
            <use fill="#F688E7" xlink:href="#a"/>
            <path stroke="#D471C7" stroke-width="1.212" d="M4.848.606A4.242 4.242 0 0 0 .606 4.848v24.243c0 2.343 1.9 4.242 4.242 4.242H10.908c.815 0 1.413.638 3.518 3.257 1.548 1.926 2.372 2.804 2.574 2.804.19 0 1.01-.885 2.535-2.802 2.091-2.628 2.676-3.259 3.483-3.259h6.134c2.343 0 4.242-1.9 4.242-4.242V4.848c0-2.343-1.9-4.242-4.242-4.242H4.848z"/>
        </g>
        <g fill="#FFF6FE" fill-rule="nonzero">
            <path d="M7.93 16.956c.038.067.044.141.059.213.149.703.352 1.39.631 2.052.383.908.889 1.739 1.563 2.463a6.869 6.869 0 0 0 2.547 1.728c.107.042.217.079.324.12.053.021.076.013.076-.049a30.294 30.294 0 0 1 0-.593c0-.051-.022-.073-.068-.086-.071-.02-.14-.052-.212-.067-.082-.017-.103-.06-.1-.14.003-.164 0-.329-.005-.493-.001-.053.017-.075.066-.085.126-.025.251-.057.378-.08.067-.013.09-.045.092-.111l.033-1.491.033-1.425c.01-.44.02-.879.032-1.318.002-.08.003-.16.012-.238.034-.27-.057-.515-.14-.762-.035-.104-.029-.113.08-.115.13-.003.13-.003.091-.123-.039-.123-.074-.248-.12-.368a.803.803 0 0 1-.043-.3c0-.056.015-.09.079-.084.07.007.09-.03.087-.095-.015-.304-.002-.61-.032-.913-.03-.312.125-.535.359-.716.024-.019.05-.035.072-.055.04-.034.042-.072-.002-.102-.075-.051-.075-.112-.035-.185.033-.06.062-.122.092-.184.022-.044.046-.047.068-.003.04.078.078.157.114.237.021.047.002.085-.033.118-.073.07-.071.088.013.149a.938.938 0 0 1 .356.43c.04.107.05.214.038.325-.03.31-.026.62-.03.93 0 .06.034.07.08.063.071-.008.083.025.087.09.01.137-.037.26-.076.385-.035.11-.071.22-.109.328-.017.05-.008.075.048.072h.009c.167.009.166.009.116.166l-.104.33c-.04.133-.013.268-.012.402 0 .035.005.07.006.106.013.56.024 1.12.04 1.68.013.437.023.874.034 1.31.01.406.025.813.03 1.219.002.111.004.111.11.111.085 0 .17-.002.255 0 .054.002.073-.02.073-.072.001-.138-.01-.27-.057-.404-.113-.32-.143-.649-.01-.974.077-.185.22-.321.36-.456a8.38 8.38 0 0 1 1.156-.964c.2-.132.402-.258.633-.33.069-.022.09-.175.036-.25-.014-.02-.031-.039-.047-.058-.048-.059-.058-.128-.002-.178.17-.15.169-.346.17-.545 0-.033.003-.065.006-.118.028.055.03.095.031.134.002.08.006.16.019.238.013.08.035.154.098.212.026.023.045.055.066.084.043.059.04.116-.006.173-.028.036-.065.067-.073.117-.02.138-.009.161.121.21.352.134.652.352.944.58.314.245.602.52.889.797.324.311.387.686.31 1.104-.017.083-.034.17-.068.246a.874.874 0 0 0-.056.379c0 .058.025.076.08.076h1.326c.052 0 .088-.023.123-.057.316-.296.585-.632.838-.982a8.95 8.95 0 0 0 1.011-1.78c.31-.733.511-1.493.555-2.293a5.533 5.533 0 0 0-.325-2.184 11.605 11.605 0 0 0-.7-1.607 8.024 8.024 0 0 0-1.518-2.03 7.356 7.356 0 0 0-2.692-1.626c-.85-.297-1.726-.463-2.618-.559-.106-.011-.212-.024-.318-.037-.004 0-.007-.007-.023-.025a8.887 8.887 0 0 1 2.834-.1c2.246.288 4.14 1.267 5.656 2.95 3.141 3.487 3.021 8.624.175 11.96a9.072 9.072 0 0 1-11.677 1.868c-1.917-1.186-3.222-2.865-3.916-5.01a8.644 8.644 0 0 1-.393-3.335z"/>
            <path d="M9.304 8.315l.747.274c.379.138.758.275 1.136.416.059.021.094.01.132-.04.394-.507.79-1.013 1.187-1.519.014-.018.026-.052.053-.042.031.012.015.048.014.073a416.46 416.46 0 0 1-.068 1.927c-.003.06.014.087.07.107.607.22 1.213.441 1.818.663.022.007.057.006.054.039-.002.025-.033.023-.054.029-.614.176-1.229.353-1.844.526-.079.022-.102.058-.104.137-.015.562-.034 1.125-.053 1.688-.003.076-.008.153-.014.23 0 .018.006.043-.018.05-.023.005-.03-.02-.041-.034l-.415-.614c-.225-.335-.451-.67-.674-1.007-.04-.06-.083-.047-.135-.032l-1.559.446-.284.082c-.021.006-.048.021-.062.003-.02-.026.011-.045.025-.063.25-.323.503-.645.755-.967.147-.188.294-.376.443-.563.033-.042.03-.073 0-.117-.36-.532-.717-1.065-1.076-1.598-.016-.024-.041-.045-.033-.094z"/>
        </g>
    </g>
</svg>
