<?xml version="1.0" encoding="UTF-8"?>
<svg width="14px" height="15px" viewBox="0 0 14 15" version="1.1" xmlns="http://www.w3.org/2000/svg" xmlns:xlink="http://www.w3.org/1999/xlink">
    <!-- Generator: Sketch 47 (45396) - http://www.bohemiancoding.com/sketch -->
    <title>p-facebook</title>
    <desc>Created with Sketch.</desc>
    <defs></defs>
    <g id="Page-1" stroke="none" stroke-width="1" fill="none" fill-rule="evenodd">
        <g id="Invofest---Detail-Tempat-Pariwisata" transform="translate(-250.000000, -1195.000000)" fill-rule="nonzero" fill="#A2A9AC">
            <g id="p-facebook" transform="translate(250.000000, 1195.706667)">
                <path d="M11.7893302,0 L1.83612383,0 C0.822117638,0 6.66626911e-05,0.823272632 6.66626911e-05,1.83886031 L6.66626911e-05,11.8073292 C6.66626911e-05,12.8229169 0.822084306,13.6461895 1.83612383,13.6461895 L6.74499775,13.6461895 L6.75336391,8.76977969 L5.48840602,8.76977969 C5.32401582,8.76977969 5.19059045,8.63665134 5.18995715,8.47201017 L5.18389085,6.90014096 C5.18325755,6.73459847 5.3170829,6.60006807 5.48237305,6.60006807 L6.74503108,6.60006807 L6.74503108,5.08124323 C6.74503108,3.31866132 7.81986698,2.35892212 9.38980668,2.35892212 L10.6780632,2.35892212 C10.8428867,2.35892212 10.9765454,2.49275149 10.9765454,2.65786002 L10.9765454,3.9832682 C10.9765454,4.14830996 10.8429867,4.28210595 10.6782298,4.2822061 L9.88764366,4.2825733 C9.03386124,4.2825733 8.86853777,4.68890184 8.86853777,5.28520867 L8.86853777,6.60010145 L10.7445926,6.60010145 C10.9233486,6.60010145 11.0620403,6.75643045 11.0409749,6.93422422 L10.8549526,8.50609343 C10.8371537,8.65651377 10.7097946,8.76984645 10.5585703,8.76984645 L8.87690394,8.76984645 L8.86853777,13.6462563 L11.7893969,13.6462563 C12.8034031,13.6462563 13.6254207,12.8229837 13.6254207,11.8074294 L13.6254207,1.83886031 C13.6253874,0.823272632 12.8033698,0 11.7893302,0 Z" id="Shape"></path>
            </g>
        </g>
    </g>
</svg>