<?xml version="1.0" encoding="UTF-8"?>
<svg width="22px" height="15px" viewBox="0 0 22 15" version="1.1" xmlns="http://www.w3.org/2000/svg" xmlns:xlink="http://www.w3.org/1999/xlink">
    <!-- Generator: Sketch 47 (45396) - http://www.bohemiancoding.com/sketch -->
    <title>p-google-plus</title>
    <desc>Created with Sketch.</desc>
    <defs></defs>
    <g id="Page-1" stroke="none" stroke-width="1" fill="none" fill-rule="evenodd">
        <g id="Invofest---Detail-Tempat-Pariwisata" transform="translate(-332.000000, -1195.000000)" fill-rule="nonzero" fill="#A2A9AC">
            <g id="p-google-plus" transform="translate(332.647154, 1195.706667)">
                <path d="M7.42801745,8.23695383 L10.7357137,8.23695383 C10.1551089,9.88696381 8.58262031,11.0699741 6.74165916,11.0563207 C4.50789926,11.0397417 2.6608858,9.24353887 2.574167,6.99984109 C2.4812111,4.59476463 4.40080592,2.60834395 6.77321427,2.60834395 C7.8579616,2.60834395 8.8478588,3.02379537 9.59413946,3.704558 C9.77090351,3.86584381 10.0399767,3.86686549 10.2138301,3.70237533 L11.4287249,2.55303401 C11.6187024,2.37326512 11.6193954,2.06968744 11.4299723,1.88931483 C10.2464478,0.762264671 8.65880534,0.0597681633 6.90802805,0.0254026304 C3.17380649,-0.0478795465 0.0261958234,3.0296468 0.000184802987,6.78384907 C-0.0260572211,10.5662404 3.01640055,13.6406552 6.77321427,13.6406552 C10.3860665,13.6406552 13.3374626,10.797186 13.5351556,7.21532227 C13.5404224,7.17041488 13.5438875,5.6527122 13.5438875,5.6527122 L7.42801745,5.6527122 C7.1773322,5.6527122 6.97414131,5.85695492 6.97414131,6.10893787 L6.97414131,7.78072816 C6.97414131,8.03271111 7.1773784,8.23695383 7.42801745,8.23695383 Z" id="Shape"></path>
                <path d="M19.1485463,5.80452426 L19.1485463,4.17109333 C19.1485463,3.95027156 18.9704886,3.77129215 18.750804,3.77129215 L17.3830771,3.77129215 C17.1633926,3.77129215 16.9853349,3.95027156 16.9853349,4.17109333 L16.9853349,5.80452426 L15.360316,5.80452426 C15.1406315,5.80452426 14.9625738,5.98350367 14.9625738,6.20432544 L14.9625738,7.57913252 C14.9625738,7.79995429 15.1406315,7.9789337 15.360316,7.9789337 L16.9853349,7.9789337 L16.9853349,9.61236463 C16.9853349,9.83318639 17.1633926,10.0121658 17.3830771,10.0121658 L18.750804,10.0121658 C18.9704886,10.0121658 19.1485463,9.83318639 19.1485463,9.61236463 L19.1485463,7.9789337 L20.7735651,7.9789337 C20.9932497,7.9789337 21.1713074,7.79995429 21.1713074,7.57913252 L21.1713074,6.20432544 C21.1713074,5.98350367 20.9932497,5.80452426 20.7735651,5.80452426 L19.1485463,5.80452426 L19.1485463,5.80452426 Z" id="Shape"></path>
            </g>
        </g>
    </g>
</svg>