<?xml version="1.0" encoding="UTF-8"?>
<svg width="15px" height="15px" viewBox="0 0 15 15" version="1.1" xmlns="http://www.w3.org/2000/svg" xmlns:xlink="http://www.w3.org/1999/xlink">
    <!-- Generator: Sketch 47 (45396) - http://www.bohemiancoding.com/sketch -->
    <title>p-instagram</title>
    <desc>Created with Sketch.</desc>
    <defs></defs>
    <g id="Page-1" stroke="none" stroke-width="1" fill="none" fill-rule="evenodd">
        <g id="Invofest---Detail-Tempat-Pariwisata" transform="translate(-276.000000, -1195.000000)" fill-rule="nonzero" fill="#ffffff">
            <g id="p-instagram" transform="translate(276.413008, 1195.706667)">
                <path d="M9.5545692,0 L4.05409421,0 C1.81865724,0 0,1.82143382 0,4.06028367 L0,9.56915633 C0,11.8080062 1.81865724,13.62944 4.05409421,13.62944 L9.5545692,13.62944 C11.7900062,13.62944 13.6086634,11.8080062 13.6086634,9.56915633 L13.6086634,4.06028367 C13.6086387,1.82143382 11.7899815,0 9.5545692,0 Z M12.2396324,9.56915633 C12.2396324,11.0543273 11.0374762,12.2583188 9.5545692,12.2583188 L4.05409421,12.2583188 C2.57118718,12.2583188 1.36903104,11.0543273 1.36903104,9.56915633 L1.36903104,4.06028367 C1.36903104,2.57508792 2.57118718,1.37112116 4.05409421,1.37112116 L9.5545692,1.37112116 C11.0374762,1.37112116 12.2396324,2.57508792 12.2396324,4.06028367 L12.2396324,9.56915633 L12.2396324,9.56915633 Z" id="Shape"></path>
                <path d="M6.80433171,3.28966184 C4.8635745,3.28966184 3.28464711,4.87099981 3.28464711,6.81469527 C3.28464711,8.75839072 4.8635745,10.3397534 6.80433171,10.3397534 C8.74508891,10.3397534 10.3240163,8.75841546 10.3240163,6.81469527 C10.3240163,4.87097507 8.74508891,3.28966184 6.80433171,3.28966184 Z M6.80433171,8.968657 C5.61654898,8.968657 4.65367814,8.00431614 4.65367814,6.81472 C4.65367814,5.62512386 5.61657368,4.660783 6.80433171,4.660783 C7.99211443,4.660783 8.95498527,5.62512386 8.95498527,6.81472 C8.95498527,8.0042914 7.99208974,8.968657 6.80433171,8.968657 Z" id="Shape"></path>
                <ellipse id="Oval" cx="10.3308326" cy="3.31612754" rx="1" ry="1"></ellipse>
            </g>
        </g>
    </g>
</svg>