<?xml version="1.0" encoding="UTF-8"?>
<svg width="15px" height="14px" viewBox="0 0 15 14" version="1.1" xmlns="http://www.w3.org/2000/svg" xmlns:xlink="http://www.w3.org/1999/xlink">
    <!-- Generator: Sketch 47 (45396) - http://www.bohemiancoding.com/sketch -->
    <title>p-pinterest</title>
    <desc>Created with Sketch.</desc>
    <defs></defs>
    <g id="Page-1" stroke="none" stroke-width="1" fill="none" fill-rule="evenodd">
        <g id="Invofest---Detail-Tempat-Pariwisata" transform="translate(-366.000000, -1194.000000)" fill-rule="nonzero" fill="#A2A9AC">
            <g id="p-pinterest" transform="translate(366.728455, 1194.000000)">
                <path d="M13.6111308,7.01725133 C13.7222375,3.1268778 10.5779776,-0.0556712187 6.7056486,0.000727296207 C2.97865618,0.0550100404 -0.0283213134,3.13768807 0.000198051143,6.87066809 C0.0206633359,9.5455313 1.57935884,11.8534405 3.83397305,12.9515256 C3.96438972,13.0150317 4.11537071,12.9162847 4.10992431,12.771123 C4.09348606,12.3324973 4.10764672,11.8635896 4.19528435,11.4866518 C4.28153562,11.1154993 4.61997202,9.68021333 4.84248247,8.73733992 C4.95078344,8.27831684 4.96385482,7.80167335 4.8766463,7.33815425 C4.84802791,7.18605017 4.82729855,7.00736672 4.82729855,6.80878179 C4.82729855,5.80117902 5.41042713,5.04889027 6.13651563,5.04889027 C6.75380804,5.04889027 7.05200704,5.51307054 7.05200704,6.06965049 C7.05200704,6.69138957 6.65672997,7.62094024 6.45273729,8.4824226 C6.28228127,9.20370208 6.81391656,9.79188636 7.52419397,9.79188636 C8.81020606,9.79188636 9.79871232,8.43382599 9.79871232,6.47349824 C9.79871232,4.73846702 8.55389487,3.52533695 6.77641887,3.52533695 C4.71771025,3.52533695 3.50930121,5.07186621 3.50930121,6.67013269 C3.50930121,7.29292965 3.74887707,7.96081898 4.04776926,8.32387203 C4.10685451,8.39560988 4.11556876,8.458521 4.09797522,8.53171345 C4.04304904,8.7606134 3.92098352,9.25282764 3.89701933,9.3535251 C3.86543017,9.48619054 3.79215125,9.51429062 3.65506685,9.45045385 C2.75132647,9.02915099 2.18638559,7.70596778 2.18638559,6.64312355 C2.18638559,4.35719851 3.84470082,2.25795719 6.96710912,2.25795719 C9.47707727,2.25795719 11.427683,4.04922163 11.427683,6.44318321 C11.427683,8.94061921 9.85538796,10.9505353 7.67306241,10.9505353 C7.0963705,10.9505353 6.54681158,10.7144947 6.22372415,10.3944513 C6.1243685,10.2960349 5.95638812,10.3408628 5.92093696,10.476239 C5.80715658,10.9104018 5.62323309,11.6126724 5.56398279,11.8410434 C5.45729924,12.2519327 5.23247818,12.7304936 5.00709598,13.1472674 C4.94721852,13.2580148 5.00778916,13.3948126 5.12968964,13.4257557 C5.68611433,13.5670826 6.26973803,13.6400436 6.87135139,13.6344567 C10.4431707,13.6012655 13.5090024,10.5932676 13.6111308,7.01725133 Z" id="Shape"></path>
            </g>
        </g>
    </g>
</svg>