<?xml version="1.0" encoding="UTF-8"?>
<svg width="18px" height="15px" viewBox="0 0 18 15" version="1.1" xmlns="http://www.w3.org/2000/svg" xmlns:xlink="http://www.w3.org/1999/xlink">
    <!-- Generator: Sketch 47 (45396) - http://www.bohemiancoding.com/sketch -->
    <title>p-twitter</title>
    <desc>Created with Sketch.</desc>
    <defs></defs>
    <g id="Page-1" stroke="none" stroke-width="1" fill="none" fill-rule="evenodd">
        <g id="Invofest---Detail-Tempat-Pariwisata" transform="translate(-302.000000, -1195.000000)" fill-rule="nonzero" fill="#ffffff">
            <g id="p-twitter" transform="translate(302.826016, 1195.706667)">
                <path d="M16.36327,1.60406706 C15.9938284,1.76539197 15.6103193,1.89266339 15.2167968,1.98480343 C15.6504134,1.57903595 15.9764367,1.07150721 16.160367,0.505013645 L16.160367,0.505013645 C16.2128664,0.343289513 16.0344901,0.203442651 15.8861945,0.290033528 L15.8861945,0.290033528 C15.3387414,0.609808967 14.7490455,0.849700429 14.1334445,1.00312078 C14.0977287,1.01202339 14.0608778,1.01653458 14.0239052,1.01653458 C13.9117714,1.01653458 13.8027591,0.975534659 13.7170169,0.90112 C13.0620515,0.332670253 12.2196694,0.0196017154 11.3450984,0.0196017154 C10.9666568,0.0196017154 10.5845667,0.0776882651 10.2094088,0.192264483 C9.04704392,0.547291072 8.15017593,1.49148694 7.86878729,2.6564117 C7.76322095,3.09335828 7.73464019,3.53070409 7.78377476,3.9562729 C7.78940983,4.00517739 7.76593713,4.03931072 7.75146432,4.05531945 C7.7260457,4.08338464 7.69000558,4.09947322 7.65258709,4.09947322 C7.64841146,4.09947322 7.64411422,4.09927361 7.63985751,4.09887439 C5.09548156,3.86608904 2.80107568,2.65896671 1.17927013,0.699912982 L1.17927013,0.699912982 C1.09656839,0.599988148 0.937975629,0.612244211 0.872057473,0.723586745 L0.872057473,0.723586745 C0.554466555,1.26013879 0.38663066,1.87382019 0.38663066,2.49828055 C0.38663066,3.45529138 0.777072086,4.3571699 1.45526694,5.01464577 C1.17006754,4.94805583 0.894030191,4.84318066 0.637614241,4.70293458 L0.637614241,4.70293458 C0.513561623,4.63506713 0.360928254,4.72229676 0.359185031,4.86202386 L0.359185031,4.86202386 C0.34142848,6.2837271 1.18668897,7.5487763 2.45291755,8.1184237 C2.42741785,8.11902253 2.40191814,8.11930199 2.3763779,8.11930199 C2.175664,8.11930199 1.97243663,8.10021926 1.77241192,8.06257279 L1.77241192,8.06257279 C1.63271083,8.03630409 1.51534732,8.1668092 1.5587252,8.30018869 L1.5587252,8.30018869 C1.96972044,9.56376078 3.07451846,10.4951417 4.39661127,10.7066087 C3.2993537,11.431952 2.02157119,11.8145647 0.691654156,11.8145647 L0.277050847,11.8143251 C0.149309082,11.8143251 0.0412697925,11.896325 0.00871611532,12.018167 C-0.023351081,12.1381726 0.0357158028,12.2647654 0.144646974,12.3271635 C1.64325125,13.1860061 3.35262335,13.6399195 5.08871136,13.6399195 C6.60835594,13.6399195 8.02985299,13.3429396 9.31375705,12.7572834 C10.4907569,12.2203721 11.530853,11.4528711 12.4051402,10.4760989 C13.2195902,9.56619602 13.8564747,8.51580756 14.2980372,7.35415641 C14.7189648,6.24683914 14.9414487,5.06530682 14.9414487,3.93727002 L14.9414487,3.88353497 C14.9414081,3.70240873 15.0245963,3.5319816 15.1697298,3.41596819 C15.7204667,2.97562823 16.2000557,2.45728062 16.5951187,1.87533723 L16.5951187,1.87533723 C16.6994283,1.72167735 16.5349167,1.52909349 16.36327,1.60406706 L16.36327,1.60406706 Z" id="Shape"></path>
            </g>
        </g>
    </g>
</svg>