<svg xmlns="http://www.w3.org/2000/svg" xmlns:xlink="http://www.w3.org/1999/xlink" width="24" height="30" viewBox="0 0 34 40">
    <defs>
        <path id="a" d="M4.848 0h24.304A4.848 4.848 0 0 1 34 4.848v24.243a4.848 4.848 0 0 1-4.848 4.848h-6.134C21.822 33.94 18.197 40 17 40c-1.221 0-4.871-6.06-6.093-6.06H4.848A4.848 4.848 0 0 1 0 29.09V4.849A4.848 4.848 0 0 1 4.848 0z"/>
    </defs>
    <g fill="none" fill-rule="evenodd">
        <g>
            <use fill="#DADF6D" xlink:href="#a"/>
            <path stroke="#C2C757" stroke-width="1.212" d="M4.848.606A4.242 4.242 0 0 0 .606 4.848v24.243c0 2.343 1.9 4.242 4.242 4.242H10.908c.815 0 1.413.638 3.518 3.257 1.548 1.926 2.372 2.804 2.574 2.804.19 0 1.01-.885 2.535-2.802 2.091-2.628 2.676-3.259 3.483-3.259h6.134c2.343 0 4.242-1.9 4.242-4.242V4.848c0-2.343-1.9-4.242-4.242-4.242H4.848z"/>
        </g>
        <path fill="#FFF" fill-rule="nonzero" d="M24.472 24.177c-1.074-1.237-3-2.18-5.327-2.564-.227-1.326-.634-1.945-.644-1.962a1 1 0 0 1 .635-.056c.298.065.5.218.624.413.036.057.127.037.138-.028a.843.843 0 0 0-.644-.915.847.847 0 0 0-.561.077c.154-.13.345-.236.579-.31.504-.157.943-.08 1.285.132.058.036.129-.016.11-.08-.057-.2-.17-.395-.38-.575-.352-.302-.843-.433-1.29-.29a1.323 1.323 0 0 0-.388.202l.026-.032c.329-.375.724-.538 1.113-.547.085-.002.123-.109.058-.162a1.214 1.214 0 0 0-.53-.246c-.496-.103-1.02.042-1.335.429a1.26 1.26 0 0 0-.238.455 1.316 1.316 0 0 0-.466-.235c-.488-.135-1 .044-1.342.41a1.147 1.147 0 0 0-.278.485c-.024.085.076.153.152.105.32-.208.734-.297 1.22-.18a.76.76 0 0 0 .04.01 1.332 1.332 0 0 0-.436.057c-.448.136-.769.52-.875.966-.06.257-.038.475.03.665.025.069.123.07.152.003.154-.36.462-.663.958-.818.234-.073.453-.096.655-.078a.827.827 0 0 0-.501.256.811.811 0 0 0-.148.836.733.733 0 0 0 .174.274c.047.047.132.01.127-.055-.018-.228.056-.466.259-.688.156-.17.334-.28.515-.304 0 0 .285.683.325 1.668a14.752 14.752 0 0 0-1.465-.074c-1.222 0-2.385.148-3.437.417.218-4.624 3.144-7.687 3.147-7.702.36.231.665.586.862 1.084.256.647.212 1.234-.02 1.718-.067.139.09.285.233.22.214-.096.42-.242.61-.458.47-.537.653-1.288.386-1.943a1.895 1.895 0 0 0-.879-.961 3.9 3.9 0 0 1 1.366.694c.952.735 1.368 1.647 1.4 2.552a.19.19 0 0 0 .334.116c.31-.36.543-.82.627-1.428.146-1.058-.228-2.153-1.093-2.81a3.055 3.055 0 0 0-.904-.475l.096.01c1.162.132 1.991.657 2.514 1.368.122.166.399.095.419-.108a2.63 2.63 0 0 0-.198-1.284c-.437-1.071-1.402-1.87-2.583-1.968a3.125 3.125 0 0 0-1.217.14c.037-.389-.005-.79-.135-1.183-.363-1.097-1.382-1.831-2.553-2.004a2.85 2.85 0 0 0-1.362.113c-.187.063-.196.327-.013.4.844.33 1.569 1 1.969 2.084l.031.088a2.968 2.968 0 0 0-.68-.75c-.853-.67-2.035-.777-3.06-.4-.61.224-1.023.562-1.315.951-.095.126.016.295.172.264.927-.188 1.95-.006 2.917.742.448.346.778.731 1.005 1.137a1.936 1.936 0 0 0-1.162-.616c-.716-.104-1.427.238-1.859.805a1.705 1.705 0 0 0-.32.677c-.033.152.151.267.277.172.432-.327 1.008-.5 1.712-.403.578.079 1.022.31 1.34.628-.056.047-3.586 2.609-5.898 10.452-.141.13-.272.266-.393.405-.237.273-.037.693.33.693h14.674c.36.002.567-.412.333-.681z"/>
    </g>
</svg>
