<svg xmlns="http://www.w3.org/2000/svg" xmlns:xlink="http://www.w3.org/1999/xlink" width="24" height="30" viewBox="0 0 34 40">
    <defs>
        <path id="a" d="M4.848 0h24.304A4.848 4.848 0 0 1 34 4.848v24.243a4.848 4.848 0 0 1-4.848 4.848h-6.134C21.822 33.94 18.197 40 17 40c-1.221 0-4.871-6.06-6.093-6.06H4.848A4.848 4.848 0 0 1 0 29.09V4.849A4.848 4.848 0 0 1 4.848 0z"/>
    </defs>
    <g fill="none" fill-rule="evenodd">
        <g>
            <use fill="#F1C40F" xlink:href="#a"/>
            <path stroke="#F39C12" stroke-width="1.212" d="M4.848.606A4.242 4.242 0 0 0 .606 4.848v24.243c0 2.343 1.9 4.242 4.242 4.242H10.908c.815 0 1.413.638 3.518 3.257 1.548 1.926 2.372 2.804 2.574 2.804.19 0 1.01-.885 2.535-2.802 2.091-2.628 2.676-3.259 3.483-3.259h6.134c2.343 0 4.242-1.9 4.242-4.242V4.848c0-2.343-1.9-4.242-4.242-4.242H4.848z"/>
        </g>
        <g fill="#FFFCF1" fill-rule="nonzero">
            <path d="M27.86 19.392l-2.403-3.904V8.307l-.979-1.004H9.497l-.979 1.004v7.18l-2.403 3.905H27.86zM23.5 9.31v5.011c-1.26-.334-3.438-.747-6.512-.747-3.074 0-5.252.413-6.513.747v-5.01H23.5zM6.071 20.627v2.007h2.28V25.4h1.956v-2.765h13.36V25.4h1.957v-2.765h2.28v-2.007z"/>
            <path d="M16.194 12.53v-1.17c0-.694-.982-1.257-2.193-1.257s-2.193.563-2.193 1.257v1.755s1.293-.334 2.182-.42c.8-.078 2.204-.165 2.204-.165zM22.168 13.115V11.36c0-.694-.982-1.257-2.193-1.257-1.212 0-2.193.563-2.193 1.257v1.17s1.402.087 2.203.165c.889.086 2.183.42 2.183.42z"/>
        </g>
    </g>
</svg>
