<svg xmlns="http://www.w3.org/2000/svg" width="24" height="24" viewBox="0 0 24 24">
    <path fill="#FFF" fill-rule="nonzero" d="M4.897 15.94a25.486 25.486 0 0 0 8.48 6.629c1.239.586 2.897 1.282 4.744 1.401.115.005.225.01.339.01 1.24 0 2.236-.427 3.047-1.307a.108.108 0 0 0 .02-.025c.289-.347.618-.66.961-.993.234-.224.473-.457.702-.696 1.06-1.103 1.06-2.504-.01-3.573L20.188 14.4c-.508-.527-1.116-.805-1.753-.805-.637 0-1.25.278-1.772.8l-1.783 1.779c-.164-.094-.334-.179-.493-.258-.2-.1-.383-.194-.548-.299-1.623-1.028-3.097-2.37-4.506-4.094-.712-.9-1.19-1.655-1.524-2.425.468-.422.907-.864 1.33-1.297.15-.154.304-.308.458-.462.538-.537.827-1.158.827-1.789 0-.63-.284-1.252-.827-1.789l-1.484-1.48c-.174-.174-.338-.343-.508-.517a27.284 27.284 0 0 0-1.01-.999C6.081.263 5.478 0 4.841 0c-.633 0-1.24.263-1.773.77L1.207 2.63a3.815 3.815 0 0 0-1.14 2.444c-.095 1.188.124 2.45.692 3.975.871 2.36 2.186 4.552 4.138 6.892zM1.282 5.178c.06-.661.313-1.213.791-1.69L3.926 1.64c.288-.279.607-.423.916-.423.304 0 .612.144.896.433.334.308.647.63.986.974.17.174.344.347.518.526l1.484 1.481c.308.308.468.621.468.93 0 .307-.16.62-.468.928-.155.154-.31.313-.463.468-.464.467-.897.909-1.375 1.331l-.025.025c-.413.412-.348.805-.249 1.103l.015.04c.384.92.917 1.794 1.748 2.837 1.494 1.839 3.067 3.265 4.8 4.363.214.139.443.248.657.358.2.099.384.193.548.298l.055.03c.164.084.323.124.483.124.398 0 .657-.254.742-.338l1.862-1.858c.289-.289.602-.443.911-.443.379 0 .687.234.881.443l3.003 2.99c.597.597.592 1.243-.015 1.874-.21.224-.428.437-.662.661-.349.338-.712.686-1.04 1.078-.574.616-1.256.905-2.137.905-.085 0-.174-.005-.259-.01-1.633-.105-3.152-.74-4.292-1.282a24.211 24.211 0 0 1-8.071-6.31c-1.858-2.232-3.107-4.309-3.934-6.535-.513-1.366-.707-2.465-.627-3.463z"/>
</svg>
