<?xml version="1.0" encoding="UTF-8"?>
<svg width="40px" height="40px" viewBox="0 0 40 40" version="1.1" xmlns="http://www.w3.org/2000/svg" xmlns:xlink="http://www.w3.org/1999/xlink">
    <!-- Generator: Sketch 47 (45396) - http://www.bohemiancoding.com/sketch -->
    <title>phone</title>
    <desc>Created with Sketch.</desc>
    <defs></defs>
    <g id="Page-1" stroke="none" stroke-width="1" fill="none" fill-rule="evenodd">
        <g id="Artboard" transform="translate(-210.000000, -212.000000)" fill-rule="nonzero" fill="#FFFFFF">
            <g id="phone" transform="translate(210.000000, 212.000000)">
                <path d="M33.1796456,24.0068608 C32.3201519,23.1119241 31.283443,22.633443 30.1847089,22.633443 C29.0948354,22.633443 28.0492658,23.1030633 27.1543291,23.998 L24.3543291,26.7891392 C24.1239494,26.6650886 23.8935696,26.5498987 23.6720506,26.4347089 C23.3530633,26.2752152 23.0517975,26.1245823 22.7948354,25.9650886 C20.1720506,24.2992658 17.7885063,22.1283797 15.5024304,19.319519 C14.3948354,17.919519 13.6505316,16.741038 13.1100253,15.5448354 C13.8366076,14.8802785 14.5100253,14.1891392 15.1657215,13.5245823 C15.4138228,13.276481 15.6619241,13.019519 15.9100253,12.7714177 C17.7707848,10.9106582 17.7707848,8.50053165 15.9100253,6.63977215 L13.491038,4.22078481 C13.2163544,3.94610127 12.9328101,3.66255696 12.6669873,3.37901266 C12.1353418,2.82964557 11.5771139,2.26255696 11.0011646,1.73091139 C10.1416709,0.880278481 9.11382278,0.428379747 8.03281013,0.428379747 C6.95179747,0.428379747 5.90622785,0.880278481 5.0201519,1.73091139 C5.01129114,1.73977215 5.01129114,1.73977215 5.00243038,1.74863291 L1.98977215,4.78787342 C0.855594937,5.92205063 0.208759494,7.30432911 0.0669873418,8.90812658 C-0.145670886,11.4954684 0.61635443,13.9055949 1.20116456,15.4828101 C2.63660759,19.354962 4.78091139,22.9435696 7.97964557,26.7891392 C11.8606582,31.4233165 16.5302785,35.0828101 21.8644557,37.6612911 C23.9024304,38.6271139 26.6226835,39.7701519 29.6619241,39.9650886 C29.848,39.9739494 30.0429367,39.9828101 30.2201519,39.9828101 C32.2669873,39.9828101 33.9859747,39.2473671 35.3328101,37.7853418 C35.3416709,37.7676203 35.3593924,37.7587595 35.3682532,37.741038 C35.8290127,37.1828101 36.3606582,36.6777468 36.9188861,36.1372405 C37.2998987,35.7739494 37.6897722,35.3929367 38.0707848,34.9942025 C38.948,34.0815443 39.4087595,33.0182532 39.4087595,31.9283797 C39.4087595,30.8296456 38.9391392,29.7752152 38.0442025,28.8891392 L33.1796456,24.0068608 Z M36.3517975,33.3372405 C36.3429367,33.3372405 36.3429367,33.3461013 36.3517975,33.3372405 C36.0062278,33.7093924 35.6517975,34.0461013 35.2707848,34.4182532 C34.6948354,34.9676203 34.1100253,35.5435696 33.5606582,36.1904051 C32.6657215,37.1473671 31.6112911,37.5992658 30.2290127,37.5992658 C30.0961013,37.5992658 29.9543291,37.5992658 29.8214177,37.5904051 C27.1897722,37.4220506 24.7442025,36.3942025 22.9100253,35.5169873 C17.8948354,33.0891392 13.491038,29.6423038 9.8315443,25.2739494 C6.81002532,21.6321772 4.78977215,18.2650886 3.45179747,14.6498987 C2.62774684,12.4435696 2.32648101,10.7245823 2.45939241,9.10306329 C2.548,8.06635443 2.94673418,7.20686076 3.68217722,6.47141772 L6.7036962,3.44989873 C7.13787342,3.0423038 7.59863291,2.82078481 8.05053165,2.82078481 C8.60875949,2.82078481 9.06065823,3.15749367 9.34420253,3.44103797 C9.35306329,3.44989873 9.36192405,3.45875949 9.37078481,3.46762025 C9.91129114,3.97268354 10.4252152,4.49546835 10.9657215,5.0536962 C11.2404051,5.33724051 11.5239494,5.62078481 11.8074937,5.91318987 L14.226481,8.33217722 C15.1657215,9.27141772 15.1657215,10.1397722 14.226481,11.0790127 C13.969519,11.3359747 13.7214177,11.5929367 13.4644557,11.841038 C12.7201519,12.6030633 12.0112911,13.3119241 11.2404051,14.0030633 C11.2226835,14.0207848 11.204962,14.0296456 11.1961013,14.0473671 C10.4340759,14.8093924 10.5758481,15.5536962 10.7353418,16.0587595 C10.7442025,16.0853418 10.7530633,16.1119241 10.7619241,16.1385063 C11.391038,17.662557 12.2771139,19.098 13.6239494,20.8081266 L13.6328101,20.8169873 C16.0783797,23.8296456 18.6568608,26.1777468 21.5011646,27.976481 C21.8644557,28.2068608 22.2366076,28.3929367 22.591038,28.5701519 C22.9100253,28.7296456 23.2112911,28.8802785 23.4682532,29.0397722 C23.5036962,29.0574937 23.5391392,29.0840759 23.5745823,29.1017975 C23.8758481,29.2524304 24.1593924,29.3233165 24.4517975,29.3233165 C25.1872405,29.3233165 25.648,28.862557 25.7986329,28.7119241 L28.8290127,25.6815443 C29.1302785,25.3802785 29.6087595,25.0169873 30.1669873,25.0169873 C30.7163544,25.0169873 31.1682532,25.362557 31.4429367,25.6638228 C31.4517975,25.6726835 31.4517975,25.6726835 31.4606582,25.6815443 L36.3429367,30.5638228 C37.2555949,31.4676203 37.2555949,32.398 36.3517975,33.3372405 Z" id="Shape"></path>
            </g>
        </g>
    </g>
</svg>