<?xml version="1.0" encoding="UTF-8"?>
<svg width="42px" height="33px" viewBox="0 0 42 33" version="1.1" xmlns="http://www.w3.org/2000/svg" xmlns:xlink="http://www.w3.org/1999/xlink">
    <!-- Generator: Sketch 47 (45396) - http://www.bohemiancoding.com/sketch -->
    <title>picture</title>
    <desc>Created with Sketch.</desc>
    <defs></defs>
    <g id="Page-1" stroke="none" stroke-width="1" fill="none" fill-rule="evenodd">
        <g id="Artboard" transform="translate(-239.000000, -46.000000)" fill-rule="nonzero" fill="#949CA1">
            <g id="picture" transform="translate(239.000000, 46.000000)">
                <path d="M41.2758621,0 L0.724137931,0 C0.324413793,0 0,0.320673913 0,0.717391304 L0,32.2826087 C0,32.6793261 0.324413793,33 0.724137931,33 L41.2758621,33 C41.6755862,33 42,32.6793261 42,32.2826087 L42,0.717391304 C42,0.320673913 41.6755862,0 41.2758621,0 Z M40.5517241,31.5652174 L1.44827586,31.5652174 L1.44827586,1.43478261 L40.5517241,1.43478261 L40.5517241,31.5652174 Z" id="Shape"></path>
                <path d="M11.5862069,15.8816087 C13.8100345,15.8816087 15.618931,14.0895652 15.618931,11.8871739 C15.618931,9.68334783 13.8100345,7.89130435 11.5862069,7.89130435 C9.36237931,7.89130435 7.55348276,9.68334783 7.55348276,11.8864565 C7.55348276,14.0895652 9.36237931,15.8816087 11.5862069,15.8816087 Z M11.5862069,9.32608696 C13.0113103,9.32608696 14.1706552,10.4753478 14.1706552,11.8864565 C14.1706552,13.2975652 13.0113103,14.4468261 11.5862069,14.4468261 C10.1611034,14.4468261 9.00175862,13.2982826 9.00175862,11.8871739 C9.00175862,10.4760652 10.1611034,9.32608696 11.5862069,9.32608696 Z" id="Shape"></path>
                <path d="M5.06896552,28.6956522 C5.23841379,28.6956522 5.40931034,28.6368261 5.54689655,28.5170217 L17.3597586,18.2138478 L24.8198276,25.6036957 C25.1029655,25.8841957 25.5606207,25.8841957 25.8437586,25.6036957 C26.1268966,25.3231957 26.1268966,24.8698043 25.8437586,24.5893043 L22.3628276,21.1408043 L29.0111379,13.9281522 L37.1656552,21.3337826 C37.4603793,21.6013696 37.9187586,21.5812826 38.1888621,21.2893043 C38.4589655,20.9973261 38.4394138,20.5432174 38.1439655,20.2756304 L29.4543103,12.3843261 C29.3123793,12.255913 29.1233793,12.1920652 28.932931,12.1963696 C28.7410345,12.2049783 28.56,12.288913 28.4303793,12.4295217 L21.3381724,20.1249783 L17.9035862,16.7223913 C17.6327586,16.4548043 17.1997241,16.4411739 16.9129655,16.6908261 L4.59031034,27.4395 C4.2897931,27.7013478 4.26082759,28.1547391 4.52513793,28.4524565 C4.66851724,28.6138696 4.86837931,28.6956522 5.06896552,28.6956522 Z" id="Shape"></path>
            </g>
        </g>
    </g>
</svg>