<svg xmlns="http://www.w3.org/2000/svg" width="26" height="26" viewBox="0 0 26 26">
    <path fill="#A2A9AC" fill-rule="nonzero" d="M25.76 13.157C25.968 5.863 20.064-.104 12.792.001 5.794.103.147 5.883.2 12.883c.039 5.015 2.966 9.342 7.2 11.401a.36.36 0 0 0 .518-.338c-.031-.823-.004-1.702.16-2.409.162-.695.798-3.387 1.216-5.154a6.32 6.32 0 0 0 .064-2.624 5.368 5.368 0 0 1-.093-.993c0-1.889 1.095-3.3 2.459-3.3 1.159 0 1.719.871 1.719 1.915 0 1.165-.743 2.908-1.126 4.524-.32 1.352.679 2.455 2.012 2.455 2.415 0 4.272-2.547 4.272-6.222 0-3.253-2.338-5.528-5.676-5.528-3.866 0-6.135 2.9-6.135 5.896 0 1.168.45 2.42 1.011 3.101a.406.406 0 0 1 .094.39c-.103.43-.332 1.352-.377 1.54-.06.25-.197.302-.454.183-1.697-.79-2.758-3.271-2.758-5.264 0-4.286 3.114-8.222 8.977-8.222 4.714 0 8.377 3.358 8.377 7.847 0 4.683-2.953 8.451-7.051 8.451-1.083 0-2.115-.442-2.722-1.042a.34.34 0 0 0-.568.153c-.214.814-.56 2.13-.67 2.559-.2.77-.623 1.668-1.046 2.45a.361.361 0 0 0 .23.521c1.045.265 2.14.402 3.27.392 6.708-.063 12.465-5.703 12.657-12.408z"/>
</svg>
