<?xml version="1.0" encoding="UTF-8"?>
<svg width="42px" height="41px" viewBox="0 0 42 41" version="1.1" xmlns="http://www.w3.org/2000/svg" xmlns:xlink="http://www.w3.org/1999/xlink">
    <!-- Generator: Sketch 47 (45396) - http://www.bohemiancoding.com/sketch -->
    <title>placeholder</title>
    <desc>Created with Sketch.</desc>
    <defs></defs>
    <g id="Page-1" stroke="none" stroke-width="1" fill="none" fill-rule="evenodd">
        <g id="Artboard" transform="translate(-298.000000, -42.000000)" fill-rule="nonzero" fill="#949CA1">
            <g id="placeholder" transform="translate(298.000000, 42.000000)">
                <path d="M20.958,17.8679344 C23.5721613,17.8679344 25.6999355,15.7567705 25.6999355,13.1630164 C25.6999355,10.5692623 23.5721613,8.45809836 20.958,8.45809836 C18.3438387,8.45809836 16.2160645,10.5692623 16.2160645,13.1630164 C16.2160645,15.7567705 18.3431613,17.8679344 20.958,17.8679344 Z M20.958,9.80236066 C22.8256452,9.80236066 24.3450968,11.3099508 24.3450968,13.1630164 C24.3450968,15.016082 22.8256452,16.5236721 20.958,16.5236721 C19.0903548,16.5236721 17.5709032,15.016082 17.5709032,13.1630164 C17.5709032,11.3099508 19.0903548,9.80236066 20.958,9.80236066 Z" id="Shape"></path>
                <path d="M34.0172903,25.261377 L29.1662903,25.261377 L31.2303871,22.304 C35.1289355,17.148082 34.5646452,8.67318033 30.0239032,4.16855738 C27.5709677,1.73409836 24.3085161,0.393196721 20.8380968,0.393196721 C17.3683548,0.393196721 14.1059032,1.73409836 11.6522903,4.16855738 C7.11154839,8.67318033 6.54725806,17.1487541 10.4302258,22.2838361 L12.5085484,25.2620492 L7.41909677,25.2620492 L0,40.7203934 L41.4363871,40.7203934 L34.0172903,25.261377 Z M11.5296774,21.4974426 C8.00777419,16.8375574 8.51245161,9.184 12.6108387,5.11827869 C14.8083871,2.93788525 17.7307742,1.73678689 20.8387742,1.73678689 C23.9467742,1.73678689 26.8684839,2.93788525 29.0667097,5.11827869 C33.1650968,9.184 33.6697742,16.8382295 30.1322903,21.5176066 L20.8380968,34.834541 L14.1567097,25.261377 L14.1567097,25.261377 L11.5296774,21.4974426 Z M8.27535484,26.6056393 L13.4467742,26.6056393 L20.8380968,37.1964098 L28.2287419,26.6056393 L33.1610323,26.6056393 L39.2903226,39.3761311 L2.14606452,39.3761311 L8.27535484,26.6056393 Z" id="Shape"></path>
            </g>
        </g>
    </g>
</svg>