<svg xmlns="http://www.w3.org/2000/svg" xmlns:xlink="http://www.w3.org/1999/xlink" width="24" height="30" viewBox="0 0 34 40">
    <defs>
        <path id="a" d="M4.848 0h24.304A4.848 4.848 0 0 1 34 4.848v24.243a4.848 4.848 0 0 1-4.848 4.848h-6.134C21.822 33.94 18.197 40 17 40c-1.221 0-4.871-6.06-6.093-6.06H4.848A4.848 4.848 0 0 1 0 29.09V4.849A4.848 4.848 0 0 1 4.848 0z"/>
    </defs>
    <g fill="none" fill-rule="evenodd">
        <g>
            <use fill="#E74C3C" xlink:href="#a"/>
            <path stroke="#C0392B" stroke-width="1.212" d="M4.848.606A4.242 4.242 0 0 0 .606 4.848v24.243c0 2.343 1.9 4.242 4.242 4.242H10.908c.815 0 1.413.638 3.518 3.257 1.548 1.926 2.372 2.804 2.574 2.804.19 0 1.01-.885 2.535-2.802 2.091-2.628 2.676-3.259 3.483-3.259h6.134c2.343 0 4.242-1.9 4.242-4.242V4.848c0-2.343-1.9-4.242-4.242-4.242H4.848z"/>
        </g>
        <path fill="#FFF2F1" fill-rule="nonzero" d="M25.226 12.421h-.215l-.547-1.54a.5.5 0 0 0-.317-.309l-.705-.227a.5.5 0 1 0-.307.95l.47.152.345.974h-.148a.25.25 0 0 0-.228.148l-.405.9a.25.25 0 0 0-.022.116l.152 2.748a.25.25 0 0 0 .25.236h.156v5.959a1.73 1.73 0 0 1-.93 1.532v-3.717c0-.366-.132-.701-.35-.962V9.135a1.865 1.865 0 0 0-1.863-1.862h-8.61a1.865 1.865 0 0 0-1.863 1.862v10.246c-.219.26-.351.596-.351.962v4.824c0 .827.673 1.5 1.5 1.5h10.037c.748 0 1.37-.55 1.482-1.266a2.983 2.983 0 0 0 2.198-2.873v-5.959h.271a.25.25 0 0 0 .25-.25v-3.648a.25.25 0 0 0-.25-.25zm-8.97 8.478a2.12 2.12 0 0 1-2.12-2.12c0-1.17 2.12-3.41 2.12-3.41s2.12 2.24 2.12 3.41c0 1.171-.949 2.12-2.12 2.12zm4.169-8.279h-8.337V9.272h8.337v3.348z"/>
    </g>
</svg>
