<?xml version="1.0" encoding="UTF-8"?>
<svg width="42px" height="32px" viewBox="0 0 42 32" version="1.1" xmlns="http://www.w3.org/2000/svg" xmlns:xlink="http://www.w3.org/1999/xlink">
    <!-- Generator: Sketch 47 (45396) - http://www.bohemiancoding.com/sketch -->
    <title>reply</title>
    <desc>Created with Sketch.</desc>
    <defs></defs>
    <g id="Page-1" stroke="none" stroke-width="1" fill="none" fill-rule="evenodd">
        <g id="Artboard" transform="translate(-39.000000, -120.000000)" fill-rule="nonzero" fill="#0086CD">
            <g id="reply" transform="translate(39.000000, 120.000000)">
                <path d="M19.2125029,8.88054026 L19.2125029,2.65974026 C19.2125029,1.19305974 18.0373216,0 16.5926199,0 C15.9427251,0 15.3150994,0.252841558 14.8289474,0.71172987 L13.7014971,1.77063896 C9.99174269,5.2553974 3.78147368,11.0874597 0.60380117,14.3229506 C0.214912281,14.7212468 0,15.3013195 0,15.9584416 C0,16.6155636 0.214912281,17.1956364 0.60380117,17.5948468 C3.78147368,20.8295065 9.99174269,26.6614857 13.7014971,30.1463273 L14.8289474,31.2052364 C15.3150994,31.6641247 15.9427251,31.9169662 16.5926199,31.9169662 C18.0373216,31.9169662 19.2125029,30.7239065 19.2125029,29.257226 L19.2125029,23.0572052 C31.788269,23.2364052 40.1715673,27.2632519 40.1715673,31.0303584 C40.1715673,31.5204156 40.5621754,31.9169662 41.0448889,31.9169662 C41.5276023,31.9169662 41.9182105,31.5204156 41.9182105,31.0303584 C41.9181287,19.0831377 31.8121754,9.31341299 19.2125029,8.88054026 Z M18.3391813,21.2779221 C17.8564678,21.2779221 17.4658596,21.6744727 17.4658596,22.1645299 L17.4658596,29.2571429 C17.4658596,29.7462857 17.0735322,30.1437506 16.592538,30.1437506 C16.3264561,30.1437506 16.1320117,30.013839 16.016,29.9047896 L14.8885497,28.8450494 C11.1873918,25.3688519 4.99415205,19.5524156 1.84210526,16.3436883 C1.79437427,16.2952312 1.7465614,16.1566753 1.7465614,15.9584416 C1.7465614,15.7602078 1.7942924,15.6216519 1.84210526,15.574026 C4.99415205,12.3644675 11.1873918,6.54803117 14.8886316,3.07183377 L16.0160819,2.01209351 C16.1320936,1.90296104 16.326538,1.77313247 16.5926199,1.77313247 C17.073614,1.77313247 17.4659415,2.17051429 17.4659415,2.65974026 L17.4659415,9.75235325 C17.4659415,10.2424104 17.8565497,10.638961 18.3392632,10.638961 C28.8392632,10.638961 37.6319181,17.5982545 39.7076842,26.8371948 C35.9807368,23.5229091 27.9113333,21.2779221 18.3391813,21.2779221 Z" id="Shape"></path>
            </g>
        </g>
    </g>
</svg>