<svg xmlns="http://www.w3.org/2000/svg" xmlns:xlink="http://www.w3.org/1999/xlink" width="24" height="30" viewBox="0 0 34 40">
    <defs>
        <path id="a" d="M4.848 0h24.304A4.848 4.848 0 0 1 34 4.848v24.243a4.848 4.848 0 0 1-4.848 4.848h-6.134C21.822 33.94 18.197 40 17 40c-1.221 0-4.871-6.06-6.093-6.06H4.848A4.848 4.848 0 0 1 0 29.09V4.849A4.848 4.848 0 0 1 4.848 0z"/>
    </defs>
    <g fill="none" fill-rule="evenodd">
        <g>
            <use fill="#636C90" xlink:href="#a"/>
            <path stroke="#4E5572" stroke-width="1.212" d="M4.848.606A4.242 4.242 0 0 0 .606 4.848v24.243c0 2.343 1.9 4.242 4.242 4.242H10.908c.815 0 1.413.638 3.518 3.257 1.548 1.926 2.372 2.804 2.574 2.804.19 0 1.01-.885 2.535-2.802 2.091-2.628 2.676-3.259 3.483-3.259h6.134c2.343 0 4.242-1.9 4.242-4.242V4.848c0-2.343-1.9-4.242-4.242-4.242H4.848z"/>
        </g>
        <path fill="#F9FAFF" fill-rule="nonzero" d="M21.204 22.164l-.04-.08c0-.026.006-.039.02-.039.013 0 .02-.013.02-.04.435-.157.83-.368 1.184-.631.354-.264.598-.645.734-1.146l.02-.138c.014-.092.035-.178.062-.257V9.524c0-.263-.075-.526-.224-.79-.15-.263-.34-.5-.572-.71a3.487 3.487 0 0 0-.775-.534c-.286-.145-.551-.217-.796-.217h-7.633c-.245 0-.51.066-.796.197a3.025 3.025 0 0 0-.775.514c-.232.21-.422.447-.572.71-.15.264-.224.514-.224.751v10.467c0 .185.04.369.122.553.082.185.19.362.327.534.136.17.285.329.449.474.163.144.326.256.49.335.081.027.21.073.387.139.177.065.266.111.266.138l-3.143 4.582h1.836l2.286-3.2h6.286l2.286 3.2h1.836l-3.06-4.503zm-6-13.983c0-.079.034-.158.102-.237.068-.079.143-.118.225-.118h2.938c.028 0 .082.026.164.079.081.052.122.105.122.158v1.106a.24.24 0 0 1-.102.197c-.068.053-.13.08-.184.08h-2.938a.477.477 0 0 1-.123-.08.263.263 0 0 1-.122-.118c-.055-.053-.082-.106-.082-.158V8.18zm-2.939 3.002c0-.132.028-.276.082-.434.082-.132.177-.264.286-.395a1.05 1.05 0 0 1 .347-.277.992.992 0 0 1 .469-.118h7.102c.109 0 .245.04.408.118.109.053.231.132.368.237.108.08.19.184.244.316a.626.626 0 0 1 .123.395v2.33a.65.65 0 0 1-.123.376 2.22 2.22 0 0 1-.285.336 1.635 1.635 0 0 1-.408.237.935.935 0 0 1-.409.079h-6.98a.576.576 0 0 1-.122-.02.262.262 0 0 1-.122-.06 1.015 1.015 0 0 1-.694-.375 1.105 1.105 0 0 1-.286-.73v-2.015zm2.102 9.124a1.174 1.174 0 0 1-.877.356c-.354 0-.64-.119-.857-.356a1.238 1.238 0 0 1-.327-.869c0-.316.116-.586.347-.81a1.16 1.16 0 0 1 .837-.335c.354 0 .646.105.877.316.232.21.347.487.347.83 0 .342-.115.631-.347.868zm5.225 0a1.197 1.197 0 0 1-.347-.869c0-.342.122-.618.367-.83.245-.21.53-.315.857-.315.354 0 .64.112.858.336.217.223.326.493.326.81 0 .342-.109.631-.326.868-.218.237-.504.356-.858.356-.353 0-.646-.119-.877-.356z"/>
    </g>
</svg>
