<svg xmlns="http://www.w3.org/2000/svg" width="14" height="12" viewBox="0 0 14 12">
    <path fill="#2B2B2B" fill-rule="nonzero" d="M12.87.114A3.894 3.894 0 0 0 10.13-.99c-1.036 0-2.01.393-2.743 1.108L7.004.49 6.616.111A3.913 3.913 0 0 0 3.87-1 3.899 3.899 0 0 0 1.134.105 3.706 3.706 0 0 0 1.14 5.45l5.574 5.434a.409.409 0 0 0 .564.003l5.585-5.425A3.71 3.71 0 0 0 14 2.788 3.692 3.692 0 0 0 12.87.114zM12.3 4.91l-5.304 5.15L1.704 4.9A2.942 2.942 0 0 1 1.7.661a3.091 3.091 0 0 1 2.17-.877c.821 0 1.596.313 2.178.88l.67.654c.158.153.41.153.567 0L7.951.67a3.1 3.1 0 0 1 2.176-.88c.819 0 1.59.312 2.172.877.582.567.9 1.32.9 2.12a2.927 2.927 0 0 1-.9 2.122z" opacity=".4"/>
</svg>
