<svg xmlns="http://www.w3.org/2000/svg" xmlns:xlink="http://www.w3.org/1999/xlink" width="24" height="30" viewBox="0 0 34 40">
    <defs>
        <path id="a" d="M4.848 0h24.304A4.848 4.848 0 0 1 34 4.848v24.243a4.848 4.848 0 0 1-4.848 4.848h-6.134C21.822 33.94 18.197 40 17 40c-1.221 0-4.871-6.06-6.093-6.06H4.848A4.848 4.848 0 0 1 0 29.09V4.849A4.848 4.848 0 0 1 4.848 0z"/>
    </defs>
    <g fill="none" fill-rule="evenodd">
        <g>
            <use fill="#2ECC71" xlink:href="#a"/>
            <path stroke="#27AE60" stroke-width="1.212" d="M4.848.606A4.242 4.242 0 0 0 .606 4.848v24.243c0 2.343 1.9 4.242 4.242 4.242H10.908c.815 0 1.413.638 3.518 3.257 1.548 1.926 2.372 2.804 2.574 2.804.19 0 1.01-.885 2.535-2.802 2.091-2.628 2.676-3.259 3.483-3.259h6.134c2.343 0 4.242-1.9 4.242-4.242V4.848c0-2.343-1.9-4.242-4.242-4.242H4.848z"/>
        </g>
        <g fill="#F6FFFA" fill-rule="nonzero">
            <path d="M23.156 13.615a4.63 4.63 0 0 0-1.162-.46c.322-.307.595-.639.803-.982.197-.325.207-.734.026-1.068a1.003 1.003 0 0 0-.893-.534 4.581 4.581 0 0 0-1.228.197c.129-.419.206-.834.226-1.228a1.09 1.09 0 0 0-.375-.897.98.98 0 0 0-1.144-.086c-.35.214-.69.499-1.006.84a5.269 5.269 0 0 0-.508-1.58 1.003 1.003 0 0 0-.887-.544c-.37 0-.709.209-.886.545a5.277 5.277 0 0 0-.51 1.594 4.811 4.811 0 0 0-1.021-.855.979.979 0 0 0-1.031.005 1.054 1.054 0 0 0-.49.94c.017.406.095.834.228 1.266a4.58 4.58 0 0 0-1.228-.197c-.37-.004-.712.2-.893.534-.181.334-.171.744.026 1.068.208.343.481.675.803.982a4.63 4.63 0 0 0-1.161.46c-.324.186-.522.539-.52.922.004.383.208.733.534.914.345.19.741.339 1.168.44-.308.304-.569.63-.77.965-.178.3-.216.671-.079.993a1.008 1.008 0 0 0 .953.625 4.582 4.582 0 0 0 1.225-.218 5.09 5.09 0 0 0-.206 1.234c-.012.354.136.698.412.907a.987.987 0 0 0 1.121.048c.326-.206.643-.476.937-.795.098.57.268 1.1.502 1.545.08.153.195.279.33.371v1.87a3.24 3.24 0 0 0-.408-.52c-.483-.5-1.065-.793-1.597-.85a.328.328 0 0 0-.355.367c.056.551.338 1.155.82 1.654.465.483 1.024.77 1.54.842v1.117c0 .305.227.568.522.582a.556.556 0 0 0 .573-.566v-1.133c.517-.071 1.076-.36 1.541-.841.482-.5.764-1.104.82-1.655a.328.328 0 0 0-.355-.368c-.532.058-1.114.35-1.597.85-.158.164-.294.34-.408.52v-1.857c.142-.094.263-.224.347-.383.232-.442.4-.965.499-1.53.29.313.602.577.923.78a.981.981 0 0 0 1.122-.049c.276-.209.424-.553.411-.907a5.093 5.093 0 0 0-.206-1.233c.419.131.833.206 1.225.218h.029c.396 0 .76-.24.924-.626.137-.321.1-.693-.08-.992a4.898 4.898 0 0 0-.769-.965c.427-.1.823-.25 1.168-.44.326-.18.53-.53.533-.914a1.051 1.051 0 0 0-.518-.922zm-6.146 4.58c-1.942 0-3.521-1.636-3.521-3.647 0-2.012 1.58-3.648 3.521-3.648 1.942 0 3.522 1.636 3.522 3.648 0 2.011-1.58 3.648-3.522 3.648z"/>
            <path d="M17.01 12.034c-1.338 0-2.426 1.128-2.426 2.514s1.088 2.513 2.426 2.513 2.427-1.127 2.427-2.513-1.089-2.514-2.427-2.514z"/>
        </g>
    </g>
</svg>
