<svg xmlns="http://www.w3.org/2000/svg" xmlns:xlink="http://www.w3.org/1999/xlink" width="24" height="30" viewBox="0 0 34 40">
    <defs>
        <path id="a" d="M4.848 0h24.304A4.848 4.848 0 0 1 34 4.848v24.243a4.848 4.848 0 0 1-4.848 4.848h-6.134C21.822 33.94 18.197 40 17 40c-1.221 0-4.871-6.06-6.093-6.06H4.848A4.848 4.848 0 0 1 0 29.09V4.849A4.848 4.848 0 0 1 4.848 0z"/>
    </defs>
    <g fill="none" fill-rule="evenodd">
        <g>
            <use fill="#E67E22" xlink:href="#a"/>
            <path stroke="#D35400" stroke-width="1.212" d="M4.848.606A4.242 4.242 0 0 0 .606 4.848v24.243c0 2.343 1.9 4.242 4.242 4.242H10.908c.815 0 1.413.638 3.518 3.257 1.548 1.926 2.372 2.804 2.574 2.804.19 0 1.01-.885 2.535-2.802 2.091-2.628 2.676-3.259 3.483-3.259h6.134c2.343 0 4.242-1.9 4.242-4.242V4.848c0-2.343-1.9-4.242-4.242-4.242H4.848z"/>
        </g>
        <g fill="#FFF8F2" fill-rule="nonzero">
            <path d="M17.888 22.108c2.795 0 5.07-2.268 5.07-5.055 0-2.788-2.275-5.057-5.07-5.057-2.794 0-5.068 2.268-5.068 5.057 0 2.787 2.273 5.055 5.068 5.055z"/>
            <path d="M17.888 23.465c3.551 0 6.429-2.871 6.429-6.412 0-3.542-2.878-6.413-6.429-6.413-3.55 0-6.428 2.87-6.428 6.413 0 3.54 2.878 6.412 6.428 6.412zm0-11.843c3.002 0 5.444 2.437 5.444 5.43 0 2.994-2.442 5.43-5.444 5.43-3.001 0-5.443-2.435-5.443-5.43 0-2.993 2.442-5.43 5.443-5.43zM27.89 24.061L27.514 9.67a.562.562 0 0 0-.794-.51v-.005l-.036.024a.576.576 0 0 0-.144.11c-.411.338-1.724 1.712-1.834 3.569-.167 2.833 1.213 3.98 1.683 5.03l-.375 6.174c0 .31.627.561.937.561.311 0 .939-.25.939-.56zM7.053 15.294l.972.483c.11.056.232.096.36.126l-.375 8.42c0 .26.627.47.937.47.31 0 .938-.21.938-.47L9.51 15.86c.132-.041.26-.092.37-.16l.72-.437c.52-.316.91-1.01.91-1.617V9.874a.562.562 0 0 0-1.125 0v3.398h-.312V9.874a.562.562 0 0 0-1.126 0v3.398h-.313V9.874a.562.562 0 0 0-1.126 0v3.398h-.311V9.995a.562.562 0 0 0-1.126 0v3.714c0 .624.423 1.306.982 1.585z"/>
        </g>
    </g>
</svg>
