<svg xmlns="http://www.w3.org/2000/svg" xmlns:xlink="http://www.w3.org/1999/xlink" width="24" height="30" viewBox="0 0 34 40">
    <defs>
        <path id="a" d="M4.848 0h24.304A4.848 4.848 0 0 1 34 4.848v24.243a4.848 4.848 0 0 1-4.848 4.848h-6.134C21.822 33.94 18.197 40 17 40c-1.221 0-4.871-6.06-6.093-6.06H4.848A4.848 4.848 0 0 1 0 29.09V4.849A4.848 4.848 0 0 1 4.848 0z"/>
    </defs>
    <g fill="none" fill-rule="evenodd">
        <g>
            <use fill="#4EDADD" xlink:href="#a"/>
            <path stroke="#43BABD" stroke-width="1.212" d="M4.848.606A4.242 4.242 0 0 0 .606 4.848v24.243c0 2.343 1.9 4.242 4.242 4.242H10.908c.815 0 1.413.638 3.518 3.257 1.548 1.926 2.372 2.804 2.574 2.804.19 0 1.01-.885 2.535-2.802 2.091-2.628 2.676-3.259 3.483-3.259h6.134c2.343 0 4.242-1.9 4.242-4.242V4.848c0-2.343-1.9-4.242-4.242-4.242H4.848z"/>
        </g>
        <path fill="#F8FFFF" fill-rule="nonzero" d="M7.888 12.795h.602v3.614h-.602a.601.601 0 0 1-.602-.602v-2.41c0-.331.269-.602.602-.602zm18.056 0h-.602v3.614h.602a.601.601 0 0 0 .602-.602v-2.41a.603.603 0 0 0-.602-.602zM24.14 11.59v10.843c0 .666-.539 1.205-1.204 1.205v1.205c0 .666-.538 1.204-1.204 1.204h-1.204c-.665 0-1.204-.54-1.204-1.204v-1.205H14.51v1.205c0 .666-.539 1.204-1.204 1.204H12.1c-.665 0-1.203-.54-1.203-1.204v-1.205c-.666 0-1.204-.54-1.204-1.205V11.59a3.613 3.613 0 0 1 3.61-3.614h7.223a3.613 3.613 0 0 1 3.612 3.614zm-9.63-1.204h4.815V9.18h-4.815v1.205zm-1.204 10.843a1.203 1.203 0 1 0-2.407 0 1.204 1.204 0 1 0 2.407 0zm9.63 0a1.203 1.203 0 1 0-2.408 0 1.204 1.204 0 1 0 2.408 0zm0-9.639H10.897v7.229h12.038V11.59z"/>
    </g>
</svg>
