<svg xmlns="http://www.w3.org/2000/svg" width="32" height="26" viewBox="0 0 32 26">
    <path fill="#A2A9AC" fill-rule="nonzero" d="M30.928 3.208a12.51 12.51 0 0 1-2.153.714 6.586 6.586 0 0 0 1.772-2.775c.099-.303-.236-.566-.515-.403-1.028.6-2.135 1.05-3.291 1.337a.881.881 0 0 1-.782-.191A6.798 6.798 0 0 0 21.505.237a7.31 7.31 0 0 0-2.133.323c-2.183.666-3.867 2.437-4.395 4.62a6.946 6.946 0 0 0-.16 2.438.235.235 0 0 1-.06.186.251.251 0 0 1-.21.081C9.769 7.45 5.46 5.185 2.415 1.512a.355.355 0 0 0-.577.045 6.529 6.529 0 0 0-.912 3.327c0 1.795.733 3.486 2.007 4.718a6.095 6.095 0 0 1-1.536-.584.352.352 0 0 0-.522.298c-.034 2.666 1.553 5.038 3.931 6.106a6.13 6.13 0 0 1-1.278-.105.348.348 0 0 0-.4.446c.77 2.37 2.846 4.115 5.328 4.512A12.573 12.573 0 0 1 1.5 22.352H.72a.514.514 0 0 0-.504.382c-.06.225.051.462.256.58a18.718 18.718 0 0 0 9.284 2.46c2.854 0 5.523-.556 7.934-1.654a17.499 17.499 0 0 0 5.805-4.277 18.691 18.691 0 0 0 3.555-5.854c.79-2.076 1.208-4.292 1.208-6.407v-.1c0-.34.156-.66.429-.877a13.166 13.166 0 0 0 2.676-2.889c.196-.288-.113-.649-.435-.508z"/>
</svg>
