<?xml version="1.0" encoding="UTF-8"?>
<svg width="40px" height="32px" viewBox="0 0 40 32" version="1.1" xmlns="http://www.w3.org/2000/svg" xmlns:xlink="http://www.w3.org/1999/xlink">
    <!-- Generator: Sketch 47 (45396) - http://www.bohemiancoding.com/sketch -->
    <title>video-player</title>
    <desc>Created with Sketch.</desc>
    <defs></defs>
    <g id="Page-1" stroke="none" stroke-width="1" fill="none" fill-rule="evenodd">
        <g id="Artboard" transform="translate(-145.000000, -46.000000)" fill-rule="nonzero" fill="#949CA1">
            <g id="video-player" transform="translate(145.000000, 46.000000)">
                <path d="M25.197931,15.4128696 L17.6117241,10.5433043 C17.3993103,10.4076522 17.1303448,10.3986087 16.9089655,10.5203478 C16.6889655,10.6427826 16.5517241,10.8765217 16.5517241,11.1304348 L16.5517241,20.8695652 C16.5517241,21.1234783 16.6889655,21.3572174 16.9096552,21.4796522 C17.0131034,21.5366957 17.1268966,21.5652174 17.2413793,21.5652174 C17.3703448,21.5652174 17.4993103,21.5283478 17.6117241,21.4566957 L25.197931,16.5871304 C25.3965517,16.4591304 25.5172414,16.237913 25.5172414,16 C25.5172414,15.762087 25.3965517,15.5408696 25.197931,15.4128696 Z M17.9310345,19.6027826 L17.9310345,12.3972174 L23.5427586,16 L17.9310345,19.6027826 Z" id="Shape"></path>
                <path d="M39.3103448,0 L32.4137931,0 L7.5862069,0 L0.689655172,0 C0.308965517,0 0,0.310956522 0,0.695652174 L0,8.34782609 L0,16 L0,23.6521739 L0,31.3043478 C0,31.6890435 0.308965517,32 0.689655172,32 L7.5862069,32 L32.4137931,32 L39.3103448,32 C39.6910345,32 40,31.6890435 40,31.3043478 L40,23.6521739 L40,16 L40,8.34782609 L40,0.695652174 C40,0.310956522 39.6910345,0 39.3103448,0 Z M6.89655172,15.3043478 L1.37931034,15.3043478 L1.37931034,9.04347826 L6.89655172,9.04347826 L6.89655172,15.3043478 Z M1.37931034,16.6956522 L6.89655172,16.6956522 L6.89655172,22.9565217 L1.37931034,22.9565217 L1.37931034,16.6956522 Z M8.27586207,23.6521739 L8.27586207,16 L8.27586207,8.34782609 L8.27586207,1.39130435 L31.7241379,1.39130435 L31.7241379,8.34782609 L31.7241379,16 L31.7241379,23.6521739 L31.7241379,30.6086957 L8.27586207,30.6086957 L8.27586207,23.6521739 Z M38.6206897,15.3043478 L33.1034483,15.3043478 L33.1034483,9.04347826 L38.6206897,9.04347826 L38.6206897,15.3043478 Z M33.1034483,16.6956522 L38.6206897,16.6956522 L38.6206897,22.9565217 L33.1034483,22.9565217 L33.1034483,16.6956522 Z M38.6206897,1.39130435 L38.6206897,7.65217391 L33.1034483,7.65217391 L33.1034483,1.39130435 L38.6206897,1.39130435 Z M1.37931034,1.39130435 L6.89655172,1.39130435 L6.89655172,7.65217391 L1.37931034,7.65217391 L1.37931034,1.39130435 Z M1.37931034,30.6086957 L1.37931034,24.3478261 L6.89655172,24.3478261 L6.89655172,30.6086957 L1.37931034,30.6086957 Z M38.6206897,30.6086957 L33.1034483,30.6086957 L33.1034483,24.3478261 L38.6206897,24.3478261 L38.6206897,30.6086957 Z" id="Shape"></path>
            </g>
        </g>
    </g>
</svg>