<svg xmlns="http://www.w3.org/2000/svg" xmlns:xlink="http://www.w3.org/1999/xlink" width="24" height="30" viewBox="0 0 34 40">
    <defs>
        <path id="a" d="M4.848 0h24.304A4.848 4.848 0 0 1 34 4.848v24.243a4.848 4.848 0 0 1-4.848 4.848h-6.134C21.822 33.94 18.197 40 17 40c-1.221 0-4.871-6.06-6.093-6.06H4.848A4.848 4.848 0 0 1 0 29.09V4.849A4.848 4.848 0 0 1 4.848 0z"/>
    </defs>
    <g fill="none" fill-rule="evenodd">
        <g>
            <use fill="#3498DB" xlink:href="#a"/>
            <path stroke="#2980B9" stroke-width="1.212" d="M4.848.606A4.242 4.242 0 0 0 .606 4.848v24.243c0 2.343 1.9 4.242 4.242 4.242H10.908c.815 0 1.413.638 3.518 3.257 1.548 1.926 2.372 2.804 2.574 2.804.19 0 1.01-.885 2.535-2.802 2.091-2.628 2.676-3.259 3.483-3.259h6.134c2.343 0 4.242-1.9 4.242-4.242V4.848c0-2.343-1.9-4.242-4.242-4.242H4.848z"/>
        </g>
        <g fill="#F9F9FF" fill-rule="nonzero">
            <path d="M27.21 20.447a2.72 2.72 0 0 1-2.01-.873.733.733 0 0 0-.543-.235.733.733 0 0 0-.541.235 2.72 2.72 0 0 1-2.012.873 2.72 2.72 0 0 1-2.01-.873.733.733 0 0 0-.543-.235.733.733 0 0 0-.541.235 2.72 2.72 0 0 1-2.012.872 2.72 2.72 0 0 1-2.01-.872.733.733 0 0 0-.542-.235.733.733 0 0 0-.542.235 2.72 2.72 0 0 1-2.011.873 2.72 2.72 0 0 1-2.012-.873.733.733 0 0 0-.541-.235.733.733 0 0 0-.542.235 2.72 2.72 0 0 1-2.011.873c-.395 0-.716.302-.716.676 0 .374.32.677.716.677a4.245 4.245 0 0 0 2.553-.848 4.245 4.245 0 0 0 2.553.848 4.245 4.245 0 0 0 2.553-.848 4.245 4.245 0 0 0 2.553.848 4.245 4.245 0 0 0 2.552-.848 4.245 4.245 0 0 0 2.553.848 4.244 4.244 0 0 0 2.553-.848 4.245 4.245 0 0 0 2.553.848c.395 0 .716-.303.716-.677 0-.374-.32-.676-.716-.676zM27.21 16.846a2.72 2.72 0 0 1-2.01-.873.733.733 0 0 0-.543-.235.733.733 0 0 0-.541.235 2.72 2.72 0 0 1-2.012.873 2.72 2.72 0 0 1-2.01-.873.733.733 0 0 0-.543-.235.733.733 0 0 0-.541.235 2.72 2.72 0 0 1-2.012.873 2.72 2.72 0 0 1-2.01-.873.733.733 0 0 0-.542-.235.733.733 0 0 0-.542.235 2.72 2.72 0 0 1-2.011.873 2.72 2.72 0 0 1-2.012-.873.733.733 0 0 0-.541-.235.733.733 0 0 0-.542.235 2.72 2.72 0 0 1-2.011.873c-.395 0-.716.303-.716.676 0 .374.32.677.716.677a4.245 4.245 0 0 0 2.553-.848 4.245 4.245 0 0 0 2.553.848 4.245 4.245 0 0 0 2.553-.848 4.245 4.245 0 0 0 2.553.848 4.245 4.245 0 0 0 2.552-.848 4.245 4.245 0 0 0 2.553.848 4.244 4.244 0 0 0 2.553-.848 4.245 4.245 0 0 0 2.553.848c.395 0 .716-.303.716-.677 0-.373-.32-.676-.716-.676zM6.787 14.598a4.245 4.245 0 0 0 2.553-.848 4.245 4.245 0 0 0 2.553.848 4.245 4.245 0 0 0 2.553-.848 4.245 4.245 0 0 0 2.553.848 4.245 4.245 0 0 0 2.552-.848 4.245 4.245 0 0 0 2.553.848 4.244 4.244 0 0 0 2.553-.848 4.245 4.245 0 0 0 2.553.848c.395 0 .716-.303.716-.677 0-.373-.32-.676-.716-.676a2.72 2.72 0 0 1-2.01-.873.733.733 0 0 0-.543-.235.733.733 0 0 0-.541.235 2.72 2.72 0 0 1-2.012.873 2.72 2.72 0 0 1-2.01-.873.733.733 0 0 0-.543-.235.733.733 0 0 0-.541.235 2.72 2.72 0 0 1-2.011.873 2.72 2.72 0 0 1-2.012-.873.733.733 0 0 0-.541-.235.733.733 0 0 0-.542.235 2.72 2.72 0 0 1-2.011.873 2.72 2.72 0 0 1-2.012-.873.733.733 0 0 0-.541-.235.733.733 0 0 0-.542.235 2.72 2.72 0 0 1-2.011.873c-.395 0-.716.303-.716.676 0 .374.32.677.716.677z"/>
        </g>
    </g>
</svg>
