<?xml version="1.0" encoding="UTF-8"?>
<svg width="42px" height="31px" viewBox="0 0 42 31" version="1.1" xmlns="http://www.w3.org/2000/svg" xmlns:xlink="http://www.w3.org/1999/xlink">
    <!-- Generator: Sketch 47 (45396) - http://www.bohemiancoding.com/sketch -->
    <title>wifi</title>
    <desc>Created with Sketch.</desc>
    <defs></defs>
    <g id="Page-1" stroke="none" stroke-width="1" fill="none" fill-rule="evenodd">
        <g id="Artboard" transform="translate(-240.000000, -366.000000)" fill-rule="nonzero" fill="#0086CD">
            <g id="wifi" transform="translate(240.000000, 366.000000)">
                <path d="M41.706,9.16617073 C36.1749818,3.689 28.8081818,0.672926829 20.9648727,0.672926829 C13.1215636,0.672926829 5.75552727,3.6882439 0.223745455,9.16617073 C-0.0748363636,9.46180488 -0.0748363636,9.93965854 0.223745455,10.2352927 C0.522327273,10.5309268 1.00494545,10.5309268 1.30352727,10.2352927 C6.54665455,5.04317073 13.5293455,2.18436585 20.9648727,2.18436585 C28.4004,2.18436585 35.3830909,5.04317073 40.6262182,10.2345366 C40.7751273,10.3819756 40.9706182,10.4560732 41.1661091,10.4560732 C41.3616,10.4560732 41.5570909,10.3819756 41.706,10.2345366 C42.0045818,9.93965854 42.0045818,9.46104878 41.706,9.16617073 Z" id="Shape"></path>
                <path d="M4.7124,13.6097561 C4.41381818,13.9053902 4.41381818,14.3832439 4.7124,14.678878 C4.86130909,14.8263171 5.0568,14.9004146 5.25229091,14.9004146 C5.44778182,14.9004146 5.64327273,14.8263171 5.79218182,14.678878 C14.1578182,6.39507317 27.7704,6.39507317 36.1368,14.678878 C36.4353818,14.9745122 36.918,14.9745122 37.2165818,14.678878 C37.5151636,14.3832439 37.5151636,13.9053902 37.2165818,13.6097561 C28.2560727,4.73770732 13.6744364,4.73619512 4.7124,13.6097561 Z" id="Shape"></path>
                <path d="M20.9648727,13.2377561 C16.5166909,13.2377561 12.3396,14.9488049 9.20181818,18.0548537 C8.90323636,18.3504878 8.90323636,18.8283415 9.20181818,19.1239756 C9.5004,19.4196098 9.98301818,19.4196098 10.2816,19.1239756 C13.1307273,16.3037317 16.9244727,14.7499512 20.9648727,14.7499512 C25.0052727,14.7499512 28.7990182,16.3037317 31.6481455,19.1239756 C31.7970545,19.2714146 31.9925455,19.3455122 32.1880364,19.3455122 C32.3835273,19.3455122 32.5790182,19.2714146 32.7279273,19.1239756 C33.0265091,18.8283415 33.0265091,18.3504878 32.7279273,18.0548537 C29.5909091,14.9488049 25.4130545,13.2377561 20.9648727,13.2377561 Z" id="Shape"></path>
                <path d="M20.9648727,20.351122 C18.2066182,20.351122 15.9622909,22.5732927 15.9622909,25.3050732 C15.9622909,28.0368537 18.2066182,30.2590244 20.9648727,30.2590244 C23.7238909,30.2590244 25.9682182,28.0368537 25.9682182,25.3050732 C25.9682182,22.5732927 23.7238909,20.351122 20.9648727,20.351122 Z" id="Shape"></path>
            </g>
        </g>
    </g>
</svg>